solid Default
  facet normal -1.836970e-16 1.000000e+00 -3.061617e-16
    outer loop
      vertex 6.337777e+01 -4.450797e+00 5.667374e+00
      vertex 7.312819e+01 -4.450797e+00 5.684342e-14
      vertex 6.337777e+01 -4.450797e+00 5.684342e-14
    endloop
  endfacet
  facet normal -1.836970e-16 1.000000e+00 -3.061617e-16
    outer loop
      vertex 7.312819e+01 -4.450797e+00 5.684342e-14
      vertex 6.337777e+01 -4.450797e+00 5.667374e+00
      vertex 7.312819e+01 -4.450797e+00 5.667374e+00
    endloop
  endfacet
  facet normal -1.000000e+00 -1.836970e-16 -3.673940e-16
    outer loop
      vertex -3.412648e+01 -4.450797e+00 5.667374e+00
      vertex -3.412648e+01 -8.327472e+00 2.740021e+00
      vertex -3.412648e+01 -8.327472e+00 5.667374e+00
    endloop
  endfacet
  facet normal -1.000000e+00 -1.836970e-16 -3.673940e-16
    outer loop
      vertex -3.412648e+01 -8.327472e+00 2.740021e+00
      vertex -3.412648e+01 -4.450797e+00 0.000000e+00
      vertex -3.412648e+01 -8.327472e+00 0.000000e+00
    endloop
  endfacet
  facet normal -1.000000e+00 -1.836970e-16 -3.673940e-16
    outer loop
      vertex -3.412648e+01 -4.450797e+00 0.000000e+00
      vertex -3.412648e+01 -8.327472e+00 2.740021e+00
      vertex -3.412648e+01 -4.450797e+00 5.667374e+00
    endloop
  endfacet
  facet normal -1.836970e-16 1.000000e+00 -3.061617e-16
    outer loop
      vertex 1.462564e+01 -8.327472e+00 5.667374e+00
      vertex 2.437606e+01 -8.327472e+00 2.842171e-14
      vertex 1.462564e+01 -8.327472e+00 2.842171e-14
    endloop
  endfacet
  facet normal -1.836970e-16 1.000000e+00 -3.061617e-16
    outer loop
      vertex 2.437606e+01 -8.327472e+00 2.842171e-14
      vertex 1.462564e+01 -8.327472e+00 5.667374e+00
      vertex 2.437606e+01 -8.327472e+00 5.667374e+00
    endloop
  endfacet
  facet normal -1.000000e+00 -1.836970e-16 -3.673940e-16
    outer loop
      vertex 4.387692e+01 -4.450797e+00 5.667374e+00
      vertex 4.387692e+01 -8.327472e+00 2.842171e-14
      vertex 4.387692e+01 -8.327472e+00 5.667374e+00
    endloop
  endfacet
  facet normal -1.000000e+00 -1.836970e-16 -3.673940e-16
    outer loop
      vertex 4.387692e+01 -8.327472e+00 2.842171e-14
      vertex 4.387692e+01 -4.450797e+00 5.667374e+00
      vertex 4.387692e+01 -4.450797e+00 2.842171e-14
    endloop
  endfacet
  facet normal -1.836970e-16 1.000000e+00 -3.061617e-16
    outer loop
      vertex -5.362734e+01 -4.450797e+00 5.667374e+00
      vertex -4.387691e+01 -4.450797e+00 0.000000e+00
      vertex -5.362734e+01 -4.450797e+00 0.000000e+00
    endloop
  endfacet
  facet normal -1.836970e-16 1.000000e+00 -3.061617e-16
    outer loop
      vertex -4.387691e+01 -4.450797e+00 0.000000e+00
      vertex -5.362734e+01 -4.450797e+00 5.667374e+00
      vertex -4.387691e+01 -4.450797e+00 5.667374e+00
    endloop
  endfacet
  facet normal -1.836970e-16 1.000000e+00 -3.061617e-16
    outer loop
      vertex -4.875217e+00 -8.327472e+00 5.667374e+00
      vertex 4.875210e+00 -8.327472e+00 2.842171e-14
      vertex -4.875217e+00 -8.327472e+00 2.842171e-14
    endloop
  endfacet
  facet normal -1.836970e-16 1.000000e+00 -3.061617e-16
    outer loop
      vertex 4.875210e+00 -8.327472e+00 2.842171e-14
      vertex -4.875217e+00 -8.327472e+00 5.667374e+00
      vertex 4.875210e+00 -8.327472e+00 5.667374e+00
    endloop
  endfacet
  facet normal -1.000000e+00 -1.836970e-16 -3.673940e-16
    outer loop
      vertex -7.312819e+01 -4.450797e+00 5.667374e+00
      vertex -7.312819e+01 -1.382816e+01 0.000000e+00
      vertex -7.312819e+01 -1.382816e+01 5.667374e+00
    endloop
  endfacet
  facet normal -1.000000e+00 -1.836970e-16 -3.673940e-16
    outer loop
      vertex -7.312819e+01 -1.382816e+01 0.000000e+00
      vertex -7.312819e+01 -4.450797e+00 5.667374e+00
      vertex -7.312819e+01 -4.450797e+00 0.000000e+00
    endloop
  endfacet
  facet normal 1.000000e+00 1.836970e-16 3.673940e-16
    outer loop
      vertex -4.875217e+00 -4.450797e+00 2.842171e-14
      vertex -4.875217e+00 -8.327472e+00 5.667374e+00
      vertex -4.875217e+00 -8.327472e+00 2.842171e-14
    endloop
  endfacet
  facet normal 1.000000e+00 1.836970e-16 3.673940e-16
    outer loop
      vertex -4.875217e+00 -8.327472e+00 5.667374e+00
      vertex -4.875217e+00 -4.450797e+00 2.842171e-14
      vertex -4.875217e+00 -4.450797e+00 5.667374e+00
    endloop
  endfacet
  facet normal 1.000000e+00 1.836970e-16 3.673940e-16
    outer loop
      vertex -4.387691e+01 -4.450797e+00 0.000000e+00
      vertex -4.387691e+01 -8.327472e+00 5.667374e+00
      vertex -4.387691e+01 -8.327472e+00 0.000000e+00
    endloop
  endfacet
  facet normal 1.000000e+00 1.836970e-16 3.673940e-16
    outer loop
      vertex -4.387691e+01 -8.327472e+00 5.667374e+00
      vertex -4.387691e+01 -4.450797e+00 0.000000e+00
      vertex -4.387691e+01 -4.450797e+00 5.667374e+00
    endloop
  endfacet
  facet normal 1.000000e+00 1.836970e-16 3.673940e-16
    outer loop
      vertex 7.312819e+01 -4.450797e+00 5.684342e-14
      vertex 7.312819e+01 -8.327472e+00 5.667374e+00
      vertex 7.312819e+01 -8.327472e+00 5.684342e-14
    endloop
  endfacet
  facet normal 1.000000e+00 1.836970e-16 3.673940e-16
    outer loop
      vertex 7.312819e+01 -8.327472e+00 5.667374e+00
      vertex 7.312819e+01 -4.450797e+00 5.684342e-14
      vertex 7.312819e+01 -4.450797e+00 5.667374e+00
    endloop
  endfacet
  facet normal -3.673940e-16 3.061617e-16 1.000000e+00
    outer loop
      vertex -7.312819e+01 -1.382816e+01 5.667374e+00
      vertex -6.337777e+01 -8.327472e+00 5.667374e+00
      vertex -7.312819e+01 -4.450797e+00 5.667374e+00
    endloop
  endfacet
  facet normal -3.673940e-16 3.061617e-16 1.000000e+00
    outer loop
      vertex -6.337777e+01 -8.327472e+00 5.667374e+00
      vertex -7.312819e+01 -1.382816e+01 5.667374e+00
      vertex 7.312819e+01 -1.382816e+01 5.667374e+00
    endloop
  endfacet
  facet normal -3.673940e-16 3.061617e-16 1.000000e+00
    outer loop
      vertex -6.337777e+01 -8.327472e+00 5.667374e+00
      vertex 7.312819e+01 -1.382816e+01 5.667374e+00
      vertex -5.362734e+01 -8.327472e+00 5.667374e+00
    endloop
  endfacet
  facet normal -3.673940e-16 3.061617e-16 1.000000e+00
    outer loop
      vertex -5.362734e+01 -8.327472e+00 5.667374e+00
      vertex 7.312819e+01 -1.382816e+01 5.667374e+00
      vertex -4.387691e+01 -8.327472e+00 5.667374e+00
    endloop
  endfacet
  facet normal -3.673940e-16 3.061617e-16 1.000000e+00
    outer loop
      vertex -5.362734e+01 -8.327472e+00 5.667374e+00
      vertex -4.387691e+01 -8.327472e+00 5.667374e+00
      vertex -5.362734e+01 -4.450797e+00 5.667374e+00
    endloop
  endfacet
  facet normal -3.673940e-16 3.061617e-16 1.000000e+00
    outer loop
      vertex -4.387691e+01 -8.327472e+00 5.667374e+00
      vertex 7.312819e+01 -1.382816e+01 5.667374e+00
      vertex -3.412648e+01 -8.327472e+00 5.667374e+00
    endloop
  endfacet
  facet normal -3.673940e-16 3.061617e-16 1.000000e+00
    outer loop
      vertex -3.412648e+01 -8.327472e+00 5.667374e+00
      vertex 7.312819e+01 -1.382816e+01 5.667374e+00
      vertex -2.437606e+01 -8.327472e+00 5.667374e+00
    endloop
  endfacet
  facet normal -3.673940e-16 3.061617e-16 1.000000e+00
    outer loop
      vertex -3.412648e+01 -8.327472e+00 5.667374e+00
      vertex -2.437606e+01 -8.327472e+00 5.667374e+00
      vertex -3.412648e+01 -4.450797e+00 5.667374e+00
    endloop
  endfacet
  facet normal -3.673940e-16 3.061617e-16 1.000000e+00
    outer loop
      vertex -2.437606e+01 -8.327472e+00 5.667374e+00
      vertex 7.312819e+01 -1.382816e+01 5.667374e+00
      vertex -1.462563e+01 -8.327472e+00 5.667374e+00
    endloop
  endfacet
  facet normal -3.673940e-16 3.061617e-16 1.000000e+00
    outer loop
      vertex -1.462563e+01 -8.327472e+00 5.667374e+00
      vertex 7.312819e+01 -1.382816e+01 5.667374e+00
      vertex -4.875217e+00 -8.327472e+00 5.667374e+00
    endloop
  endfacet
  facet normal -3.673940e-16 3.061617e-16 1.000000e+00
    outer loop
      vertex -1.462563e+01 -8.327472e+00 5.667374e+00
      vertex -4.875217e+00 -8.327472e+00 5.667374e+00
      vertex -1.462563e+01 -4.450797e+00 5.667374e+00
    endloop
  endfacet
  facet normal -3.673940e-16 3.061617e-16 1.000000e+00
    outer loop
      vertex -4.875217e+00 -8.327472e+00 5.667374e+00
      vertex 7.312819e+01 -1.382816e+01 5.667374e+00
      vertex 4.875210e+00 -8.327472e+00 5.667374e+00
    endloop
  endfacet
  facet normal -3.673940e-16 3.061617e-16 1.000000e+00
    outer loop
      vertex 4.875210e+00 -8.327472e+00 5.667374e+00
      vertex 7.312819e+01 -1.382816e+01 5.667374e+00
      vertex 1.462564e+01 -8.327472e+00 5.667374e+00
    endloop
  endfacet
  facet normal -3.673940e-16 3.061617e-16 1.000000e+00
    outer loop
      vertex 4.875210e+00 -8.327472e+00 5.667374e+00
      vertex 1.462564e+01 -8.327472e+00 5.667374e+00
      vertex 4.875210e+00 -4.450797e+00 5.667374e+00
    endloop
  endfacet
  facet normal -3.673940e-16 3.061617e-16 1.000000e+00
    outer loop
      vertex 1.462564e+01 -8.327472e+00 5.667374e+00
      vertex 7.312819e+01 -1.382816e+01 5.667374e+00
      vertex 2.437606e+01 -8.327472e+00 5.667374e+00
    endloop
  endfacet
  facet normal -3.673940e-16 3.061617e-16 1.000000e+00
    outer loop
      vertex 2.437606e+01 -8.327472e+00 5.667374e+00
      vertex 7.312819e+01 -1.382816e+01 5.667374e+00
      vertex 3.412649e+01 -8.327472e+00 5.667374e+00
    endloop
  endfacet
  facet normal -3.673940e-16 3.061617e-16 1.000000e+00
    outer loop
      vertex 2.437606e+01 -8.327472e+00 5.667374e+00
      vertex 3.412649e+01 -8.327472e+00 5.667374e+00
      vertex 2.437606e+01 -4.450797e+00 5.667374e+00
    endloop
  endfacet
  facet normal -3.673940e-16 3.061617e-16 1.000000e+00
    outer loop
      vertex 3.412649e+01 -8.327472e+00 5.667374e+00
      vertex 7.312819e+01 -1.382816e+01 5.667374e+00
      vertex 4.387692e+01 -8.327472e+00 5.667374e+00
    endloop
  endfacet
  facet normal -3.673940e-16 3.061617e-16 1.000000e+00
    outer loop
      vertex 4.387692e+01 -8.327472e+00 5.667374e+00
      vertex 7.312819e+01 -1.382816e+01 5.667374e+00
      vertex 5.362734e+01 -8.327472e+00 5.667374e+00
    endloop
  endfacet
  facet normal -3.673940e-16 3.061617e-16 1.000000e+00
    outer loop
      vertex 4.387692e+01 -8.327472e+00 5.667374e+00
      vertex 5.362734e+01 -8.327472e+00 5.667374e+00
      vertex 4.387692e+01 -4.450797e+00 5.667374e+00
    endloop
  endfacet
  facet normal -3.673940e-16 3.061617e-16 1.000000e+00
    outer loop
      vertex 5.362734e+01 -8.327472e+00 5.667374e+00
      vertex 7.312819e+01 -1.382816e+01 5.667374e+00
      vertex 6.337777e+01 -8.327472e+00 5.667374e+00
    endloop
  endfacet
  facet normal -3.673940e-16 3.061617e-16 1.000000e+00
    outer loop
      vertex 6.337777e+01 -8.327472e+00 5.667374e+00
      vertex 7.312819e+01 -1.382816e+01 5.667374e+00
      vertex 6.337777e+01 -4.450797e+00 5.667374e+00
    endloop
  endfacet
  facet normal -3.673940e-16 3.061617e-16 1.000000e+00
    outer loop
      vertex 6.337777e+01 -4.450797e+00 5.667374e+00
      vertex 7.312819e+01 -1.382816e+01 5.667374e+00
      vertex 7.312819e+01 -4.450797e+00 5.667374e+00
    endloop
  endfacet
  facet normal -3.673940e-16 3.061617e-16 1.000000e+00
    outer loop
      vertex 7.312819e+01 -4.450797e+00 5.667374e+00
      vertex 7.312819e+01 -1.382816e+01 5.667374e+00
      vertex 7.312819e+01 -8.327472e+00 5.667374e+00
    endloop
  endfacet
  facet normal -3.673940e-16 3.061617e-16 1.000000e+00
    outer loop
      vertex 5.362734e+01 -4.450797e+00 5.667374e+00
      vertex 4.387692e+01 -4.450797e+00 5.667374e+00
      vertex 5.362734e+01 -8.327472e+00 5.667374e+00
    endloop
  endfacet
  facet normal -3.673940e-16 3.061617e-16 1.000000e+00
    outer loop
      vertex 3.412649e+01 -4.450797e+00 5.667374e+00
      vertex 2.437606e+01 -4.450797e+00 5.667374e+00
      vertex 3.412649e+01 -8.327472e+00 5.667374e+00
    endloop
  endfacet
  facet normal -3.673940e-16 3.061617e-16 1.000000e+00
    outer loop
      vertex 1.462564e+01 -4.450797e+00 5.667374e+00
      vertex 4.875210e+00 -4.450797e+00 5.667374e+00
      vertex 1.462564e+01 -8.327472e+00 5.667374e+00
    endloop
  endfacet
  facet normal -3.673940e-16 3.061617e-16 1.000000e+00
    outer loop
      vertex -4.875217e+00 -4.450797e+00 5.667374e+00
      vertex -1.462563e+01 -4.450797e+00 5.667374e+00
      vertex -4.875217e+00 -8.327472e+00 5.667374e+00
    endloop
  endfacet
  facet normal -3.673940e-16 3.061617e-16 1.000000e+00
    outer loop
      vertex -2.437606e+01 -4.450797e+00 5.667374e+00
      vertex -3.412648e+01 -4.450797e+00 5.667374e+00
      vertex -2.437606e+01 -8.327472e+00 5.667374e+00
    endloop
  endfacet
  facet normal -3.673940e-16 3.061617e-16 1.000000e+00
    outer loop
      vertex -4.387691e+01 -4.450797e+00 5.667374e+00
      vertex -5.362734e+01 -4.450797e+00 5.667374e+00
      vertex -4.387691e+01 -8.327472e+00 5.667374e+00
    endloop
  endfacet
  facet normal -3.673940e-16 3.061617e-16 1.000000e+00
    outer loop
      vertex -6.337777e+01 -4.450797e+00 5.667374e+00
      vertex -7.312819e+01 -4.450797e+00 5.667374e+00
      vertex -6.337777e+01 -8.327472e+00 5.667374e+00
    endloop
  endfacet
  facet normal 1.000000e+00 1.836970e-16 3.673940e-16
    outer loop
      vertex 5.362734e+01 -4.450797e+00 2.842171e-14
      vertex 5.362734e+01 -8.327472e+00 5.667374e+00
      vertex 5.362734e+01 -8.327472e+00 2.842171e-14
    endloop
  endfacet
  facet normal 1.000000e+00 1.836970e-16 3.673940e-16
    outer loop
      vertex 5.362734e+01 -8.327472e+00 5.667374e+00
      vertex 5.362734e+01 -4.450797e+00 2.842171e-14
      vertex 5.362734e+01 -4.450797e+00 5.667374e+00
    endloop
  endfacet
  facet normal -1.836970e-16 1.000000e+00 -3.061617e-16
    outer loop
      vertex 4.387692e+01 -4.450797e+00 5.667374e+00
      vertex 5.362734e+01 -4.450797e+00 2.842171e-14
      vertex 4.387692e+01 -4.450797e+00 2.842171e-14
    endloop
  endfacet
  facet normal -1.836970e-16 1.000000e+00 -3.061617e-16
    outer loop
      vertex 5.362734e+01 -4.450797e+00 2.842171e-14
      vertex 4.387692e+01 -4.450797e+00 5.667374e+00
      vertex 5.362734e+01 -4.450797e+00 5.667374e+00
    endloop
  endfacet
  facet normal 1.000000e+00 1.836970e-16 3.673940e-16
    outer loop
      vertex 1.462564e+01 -4.450797e+00 2.842171e-14
      vertex 1.462564e+01 -8.327472e+00 5.667374e+00
      vertex 1.462564e+01 -8.327472e+00 2.842171e-14
    endloop
  endfacet
  facet normal 1.000000e+00 1.836970e-16 3.673940e-16
    outer loop
      vertex 1.462564e+01 -8.327472e+00 5.667374e+00
      vertex 1.462564e+01 -4.450797e+00 2.842171e-14
      vertex 1.462564e+01 -4.450797e+00 5.667374e+00
    endloop
  endfacet
  facet normal 1.000000e+00 1.836970e-16 3.673940e-16
    outer loop
      vertex 7.312819e+01 -8.327472e+00 5.684342e-14
      vertex 7.312819e+01 -1.382816e+01 5.667374e+00
      vertex 7.312819e+01 -1.382816e+01 5.684342e-14
    endloop
  endfacet
  facet normal 1.000000e+00 1.836970e-16 3.673940e-16
    outer loop
      vertex 7.312819e+01 -1.382816e+01 5.667374e+00
      vertex 7.312819e+01 -8.327472e+00 5.684342e-14
      vertex 7.312819e+01 -8.327472e+00 5.667374e+00
    endloop
  endfacet
  facet normal 3.673940e-16 -3.061617e-16 -1.000000e+00
    outer loop
      vertex -4.387691e+01 -4.450797e+00 0.000000e+00
      vertex -5.362734e+01 -8.327472e+00 0.000000e+00
      vertex -5.362734e+01 -4.450797e+00 0.000000e+00
    endloop
  endfacet
  facet normal 3.673940e-16 -3.061617e-16 -1.000000e+00
    outer loop
      vertex -2.437606e+01 -4.450797e+00 0.000000e+00
      vertex -3.412648e+01 -8.327472e+00 0.000000e+00
      vertex -3.412648e+01 -4.450797e+00 0.000000e+00
    endloop
  endfacet
  facet normal 3.673940e-16 -3.061617e-16 -1.000000e+00
    outer loop
      vertex -4.875217e+00 -4.450797e+00 2.842171e-14
      vertex -1.462563e+01 -8.327472e+00 2.842171e-14
      vertex -1.462563e+01 -4.450797e+00 2.842171e-14
    endloop
  endfacet
  facet normal 3.673940e-16 -3.061617e-16 -1.000000e+00
    outer loop
      vertex 1.462564e+01 -4.450797e+00 2.842171e-14
      vertex 4.875210e+00 -8.327472e+00 2.842171e-14
      vertex 4.875210e+00 -4.450797e+00 2.842171e-14
    endloop
  endfacet
  facet normal 3.673940e-16 -3.061617e-16 -1.000000e+00
    outer loop
      vertex 3.412649e+01 -4.450797e+00 2.842171e-14
      vertex 2.437606e+01 -8.327472e+00 2.842171e-14
      vertex 2.437606e+01 -4.450797e+00 2.842171e-14
    endloop
  endfacet
  facet normal 3.673940e-16 -3.061617e-16 -1.000000e+00
    outer loop
      vertex 5.362734e+01 -4.450797e+00 2.842171e-14
      vertex 4.387692e+01 -8.327472e+00 2.842171e-14
      vertex 4.387692e+01 -4.450797e+00 2.842171e-14
    endloop
  endfacet
  facet normal 3.673940e-16 -3.061617e-16 -1.000000e+00
    outer loop
      vertex 7.312819e+01 -4.450797e+00 5.684342e-14
      vertex 6.337777e+01 -8.327472e+00 5.684342e-14
      vertex 6.337777e+01 -4.450797e+00 5.684342e-14
    endloop
  endfacet
  facet normal 3.673940e-16 -3.061617e-16 -1.000000e+00
    outer loop
      vertex -6.337777e+01 -4.450797e+00 0.000000e+00
      vertex -7.312819e+01 -1.382816e+01 0.000000e+00
      vertex -7.312819e+01 -4.450797e+00 0.000000e+00
    endloop
  endfacet
  facet normal 3.673940e-16 -3.061617e-16 -1.000000e+00
    outer loop
      vertex -7.312819e+01 -1.382816e+01 0.000000e+00
      vertex -6.337777e+01 -4.450797e+00 0.000000e+00
      vertex -6.337777e+01 -8.327472e+00 0.000000e+00
    endloop
  endfacet
  facet normal 3.673940e-16 -3.061617e-16 -1.000000e+00
    outer loop
      vertex -7.312819e+01 -1.382816e+01 0.000000e+00
      vertex -6.337777e+01 -8.327472e+00 0.000000e+00
      vertex 7.312819e+01 -1.382816e+01 5.684342e-14
    endloop
  endfacet
  facet normal 3.673940e-16 -3.061617e-16 -1.000000e+00
    outer loop
      vertex 7.312819e+01 -1.382816e+01 5.684342e-14
      vertex -6.337777e+01 -8.327472e+00 0.000000e+00
      vertex -5.362734e+01 -8.327472e+00 0.000000e+00
    endloop
  endfacet
  facet normal 3.673940e-16 -3.061617e-16 -1.000000e+00
    outer loop
      vertex 7.312819e+01 -1.382816e+01 5.684342e-14
      vertex -5.362734e+01 -8.327472e+00 0.000000e+00
      vertex -4.387691e+01 -8.327472e+00 0.000000e+00
    endloop
  endfacet
  facet normal 3.673940e-16 -3.061617e-16 -1.000000e+00
    outer loop
      vertex -4.387691e+01 -8.327472e+00 0.000000e+00
      vertex -5.362734e+01 -8.327472e+00 0.000000e+00
      vertex -4.387691e+01 -4.450797e+00 0.000000e+00
    endloop
  endfacet
  facet normal 3.673940e-16 -3.061617e-16 -1.000000e+00
    outer loop
      vertex 7.312819e+01 -1.382816e+01 5.684342e-14
      vertex -4.387691e+01 -8.327472e+00 0.000000e+00
      vertex -3.412648e+01 -8.327472e+00 0.000000e+00
    endloop
  endfacet
  facet normal 3.673940e-16 -3.061617e-16 -1.000000e+00
    outer loop
      vertex 7.312819e+01 -1.382816e+01 5.684342e-14
      vertex -3.412648e+01 -8.327472e+00 0.000000e+00
      vertex -2.437606e+01 -8.327472e+00 0.000000e+00
    endloop
  endfacet
  facet normal 3.673940e-16 -3.061617e-16 -1.000000e+00
    outer loop
      vertex -2.437606e+01 -8.327472e+00 0.000000e+00
      vertex -3.412648e+01 -8.327472e+00 0.000000e+00
      vertex -2.437606e+01 -4.450797e+00 0.000000e+00
    endloop
  endfacet
  facet normal 3.673940e-16 -3.061617e-16 -1.000000e+00
    outer loop
      vertex 7.312819e+01 -1.382816e+01 5.684342e-14
      vertex -2.437606e+01 -8.327472e+00 0.000000e+00
      vertex -1.462563e+01 -8.327472e+00 2.842171e-14
    endloop
  endfacet
  facet normal 3.673940e-16 -3.061617e-16 -1.000000e+00
    outer loop
      vertex 7.312819e+01 -1.382816e+01 5.684342e-14
      vertex -1.462563e+01 -8.327472e+00 2.842171e-14
      vertex -4.875217e+00 -8.327472e+00 2.842171e-14
    endloop
  endfacet
  facet normal 3.673940e-16 -3.061617e-16 -1.000000e+00
    outer loop
      vertex -4.875217e+00 -8.327472e+00 2.842171e-14
      vertex -1.462563e+01 -8.327472e+00 2.842171e-14
      vertex -4.875217e+00 -4.450797e+00 2.842171e-14
    endloop
  endfacet
  facet normal 3.673940e-16 -3.061617e-16 -1.000000e+00
    outer loop
      vertex 7.312819e+01 -1.382816e+01 5.684342e-14
      vertex -4.875217e+00 -8.327472e+00 2.842171e-14
      vertex 4.875210e+00 -8.327472e+00 2.842171e-14
    endloop
  endfacet
  facet normal 3.673940e-16 -3.061617e-16 -1.000000e+00
    outer loop
      vertex 7.312819e+01 -1.382816e+01 5.684342e-14
      vertex 4.875210e+00 -8.327472e+00 2.842171e-14
      vertex 1.462564e+01 -8.327472e+00 2.842171e-14
    endloop
  endfacet
  facet normal 3.673940e-16 -3.061617e-16 -1.000000e+00
    outer loop
      vertex 1.462564e+01 -8.327472e+00 2.842171e-14
      vertex 4.875210e+00 -8.327472e+00 2.842171e-14
      vertex 1.462564e+01 -4.450797e+00 2.842171e-14
    endloop
  endfacet
  facet normal 3.673940e-16 -3.061617e-16 -1.000000e+00
    outer loop
      vertex 7.312819e+01 -1.382816e+01 5.684342e-14
      vertex 1.462564e+01 -8.327472e+00 2.842171e-14
      vertex 2.437606e+01 -8.327472e+00 2.842171e-14
    endloop
  endfacet
  facet normal 3.673940e-16 -3.061617e-16 -1.000000e+00
    outer loop
      vertex 7.312819e+01 -1.382816e+01 5.684342e-14
      vertex 2.437606e+01 -8.327472e+00 2.842171e-14
      vertex 3.412649e+01 -8.327472e+00 2.842171e-14
    endloop
  endfacet
  facet normal 3.673940e-16 -3.061617e-16 -1.000000e+00
    outer loop
      vertex 3.412649e+01 -8.327472e+00 2.842171e-14
      vertex 2.437606e+01 -8.327472e+00 2.842171e-14
      vertex 3.412649e+01 -4.450797e+00 2.842171e-14
    endloop
  endfacet
  facet normal 3.673940e-16 -3.061617e-16 -1.000000e+00
    outer loop
      vertex 7.312819e+01 -1.382816e+01 5.684342e-14
      vertex 3.412649e+01 -8.327472e+00 2.842171e-14
      vertex 4.387692e+01 -8.327472e+00 2.842171e-14
    endloop
  endfacet
  facet normal 3.673940e-16 -3.061617e-16 -1.000000e+00
    outer loop
      vertex 7.312819e+01 -1.382816e+01 5.684342e-14
      vertex 4.387692e+01 -8.327472e+00 2.842171e-14
      vertex 5.362734e+01 -8.327472e+00 2.842171e-14
    endloop
  endfacet
  facet normal 3.673940e-16 -3.061617e-16 -1.000000e+00
    outer loop
      vertex 5.362734e+01 -8.327472e+00 2.842171e-14
      vertex 4.387692e+01 -8.327472e+00 2.842171e-14
      vertex 5.362734e+01 -4.450797e+00 2.842171e-14
    endloop
  endfacet
  facet normal 3.673940e-16 -3.061617e-16 -1.000000e+00
    outer loop
      vertex 7.312819e+01 -1.382816e+01 5.684342e-14
      vertex 5.362734e+01 -8.327472e+00 2.842171e-14
      vertex 6.337777e+01 -8.327472e+00 5.684342e-14
    endloop
  endfacet
  facet normal 3.673940e-16 -3.061617e-16 -1.000000e+00
    outer loop
      vertex 7.312819e+01 -1.382816e+01 5.684342e-14
      vertex 6.337777e+01 -8.327472e+00 5.684342e-14
      vertex 7.312819e+01 -4.450797e+00 5.684342e-14
    endloop
  endfacet
  facet normal 3.673940e-16 -3.061617e-16 -1.000000e+00
    outer loop
      vertex 7.312819e+01 -1.382816e+01 5.684342e-14
      vertex 7.312819e+01 -4.450797e+00 5.684342e-14
      vertex 7.312819e+01 -8.327472e+00 5.684342e-14
    endloop
  endfacet
  facet normal 1.000000e+00 1.836970e-16 3.673940e-16
    outer loop
      vertex -2.437606e+01 -4.450797e+00 0.000000e+00
      vertex -2.437606e+01 -8.327472e+00 5.667374e+00
      vertex -2.437606e+01 -8.327472e+00 0.000000e+00
    endloop
  endfacet
  facet normal 1.000000e+00 1.836970e-16 3.673940e-16
    outer loop
      vertex -2.437606e+01 -8.327472e+00 5.667374e+00
      vertex -2.437606e+01 -4.450797e+00 0.000000e+00
      vertex -2.437606e+01 -4.450797e+00 5.667374e+00
    endloop
  endfacet
  facet normal -1.836970e-16 1.000000e+00 -3.061617e-16
    outer loop
      vertex -2.437606e+01 -8.327472e+00 5.667374e+00
      vertex -1.462563e+01 -8.327472e+00 2.842171e-14
      vertex -2.437606e+01 -8.327472e+00 0.000000e+00
    endloop
  endfacet
  facet normal -1.836970e-16 1.000000e+00 -3.061617e-16
    outer loop
      vertex -1.462563e+01 -8.327472e+00 2.842171e-14
      vertex -2.437606e+01 -8.327472e+00 5.667374e+00
      vertex -1.462563e+01 -8.327472e+00 2.740021e+00
    endloop
  endfacet
  facet normal -1.836970e-16 1.000000e+00 -3.061617e-16
    outer loop
      vertex -1.462563e+01 -8.327472e+00 2.740021e+00
      vertex -2.437606e+01 -8.327472e+00 5.667374e+00
      vertex -1.462563e+01 -8.327472e+00 5.667374e+00
    endloop
  endfacet
  facet normal -1.836970e-16 1.000000e+00 -3.061617e-16
    outer loop
      vertex -1.462563e+01 -4.450797e+00 5.667374e+00
      vertex -4.875217e+00 -4.450797e+00 2.842171e-14
      vertex -1.462563e+01 -4.450797e+00 2.842171e-14
    endloop
  endfacet
  facet normal -1.836970e-16 1.000000e+00 -3.061617e-16
    outer loop
      vertex -4.875217e+00 -4.450797e+00 2.842171e-14
      vertex -1.462563e+01 -4.450797e+00 5.667374e+00
      vertex -4.875217e+00 -4.450797e+00 5.667374e+00
    endloop
  endfacet
  facet normal -1.836970e-16 1.000000e+00 -3.061617e-16
    outer loop
      vertex 5.362734e+01 -8.327472e+00 5.667374e+00
      vertex 6.337777e+01 -8.327472e+00 5.684342e-14
      vertex 5.362734e+01 -8.327472e+00 2.842171e-14
    endloop
  endfacet
  facet normal -1.836970e-16 1.000000e+00 -3.061617e-16
    outer loop
      vertex 6.337777e+01 -8.327472e+00 5.684342e-14
      vertex 5.362734e+01 -8.327472e+00 5.667374e+00
      vertex 6.337777e+01 -8.327472e+00 5.667374e+00
    endloop
  endfacet
  facet normal 1.000000e+00 1.836970e-16 3.673940e-16
    outer loop
      vertex -6.337777e+01 -4.450797e+00 0.000000e+00
      vertex -6.337777e+01 -8.327472e+00 5.667374e+00
      vertex -6.337777e+01 -8.327472e+00 0.000000e+00
    endloop
  endfacet
  facet normal 1.000000e+00 1.836970e-16 3.673940e-16
    outer loop
      vertex -6.337777e+01 -8.327472e+00 5.667374e+00
      vertex -6.337777e+01 -4.450797e+00 0.000000e+00
      vertex -6.337777e+01 -4.450797e+00 5.667374e+00
    endloop
  endfacet
  facet normal -1.000000e+00 -1.836970e-16 -3.673940e-16
    outer loop
      vertex 4.875210e+00 -4.450797e+00 5.667374e+00
      vertex 4.875210e+00 -8.327472e+00 2.842171e-14
      vertex 4.875210e+00 -8.327472e+00 5.667374e+00
    endloop
  endfacet
  facet normal -1.000000e+00 -1.836970e-16 -3.673940e-16
    outer loop
      vertex 4.875210e+00 -8.327472e+00 2.842171e-14
      vertex 4.875210e+00 -4.450797e+00 5.667374e+00
      vertex 4.875210e+00 -4.450797e+00 2.842171e-14
    endloop
  endfacet
  facet normal -1.836970e-16 1.000000e+00 -3.061617e-16
    outer loop
      vertex 4.875210e+00 -4.450797e+00 5.667374e+00
      vertex 1.462564e+01 -4.450797e+00 2.842171e-14
      vertex 4.875210e+00 -4.450797e+00 2.842171e-14
    endloop
  endfacet
  facet normal -1.836970e-16 1.000000e+00 -3.061617e-16
    outer loop
      vertex 1.462564e+01 -4.450797e+00 2.842171e-14
      vertex 4.875210e+00 -4.450797e+00 5.667374e+00
      vertex 1.462564e+01 -4.450797e+00 5.667374e+00
    endloop
  endfacet
  facet normal -1.836970e-16 1.000000e+00 -3.061617e-16
    outer loop
      vertex -6.337777e+01 -8.327472e+00 5.667374e+00
      vertex -5.362734e+01 -8.327472e+00 0.000000e+00
      vertex -6.337777e+01 -8.327472e+00 0.000000e+00
    endloop
  endfacet
  facet normal -1.836970e-16 1.000000e+00 -3.061617e-16
    outer loop
      vertex -5.362734e+01 -8.327472e+00 0.000000e+00
      vertex -6.337777e+01 -8.327472e+00 5.667374e+00
      vertex -5.362734e+01 -8.327472e+00 2.740021e+00
    endloop
  endfacet
  facet normal -1.836970e-16 1.000000e+00 -3.061617e-16
    outer loop
      vertex -5.362734e+01 -8.327472e+00 2.740021e+00
      vertex -6.337777e+01 -8.327472e+00 5.667374e+00
      vertex -5.362734e+01 -8.327472e+00 5.667374e+00
    endloop
  endfacet
  facet normal -1.000000e+00 -1.836970e-16 -3.673940e-16
    outer loop
      vertex 6.337777e+01 -4.450797e+00 5.667374e+00
      vertex 6.337777e+01 -8.327472e+00 5.684342e-14
      vertex 6.337777e+01 -8.327472e+00 5.667374e+00
    endloop
  endfacet
  facet normal -1.000000e+00 -1.836970e-16 -3.673940e-16
    outer loop
      vertex 6.337777e+01 -8.327472e+00 5.684342e-14
      vertex 6.337777e+01 -4.450797e+00 5.667374e+00
      vertex 6.337777e+01 -4.450797e+00 5.684342e-14
    endloop
  endfacet
  facet normal -1.000000e+00 -1.836970e-16 -3.673940e-16
    outer loop
      vertex -5.362734e+01 1.382816e+01 5.667374e+00
      vertex -5.362734e+01 9.951484e+00 2.740021e+00
      vertex -5.362734e+01 9.951484e+00 5.667374e+00
    endloop
  endfacet
  facet normal -1.000000e+00 -1.836970e-16 -3.673940e-16
    outer loop
      vertex -5.362734e+01 9.951484e+00 2.740021e+00
      vertex -5.362734e+01 1.382816e+01 5.667374e+00
      vertex -5.362734e+01 9.951484e+00 0.000000e+00
    endloop
  endfacet
  facet normal -1.000000e+00 -1.836970e-16 -3.673940e-16
    outer loop
      vertex -5.362734e+01 9.951484e+00 0.000000e+00
      vertex -5.362734e+01 1.382816e+01 5.667374e+00
      vertex -5.362734e+01 1.382816e+01 0.000000e+00
    endloop
  endfacet
  facet normal 1.000000e+00 1.836970e-16 3.673940e-16
    outer loop
      vertex -6.337777e+01 1.382816e+01 0.000000e+00
      vertex -6.337777e+01 9.951484e+00 5.667374e+00
      vertex -6.337777e+01 9.951484e+00 0.000000e+00
    endloop
  endfacet
  facet normal 1.000000e+00 1.836970e-16 3.673940e-16
    outer loop
      vertex -6.337777e+01 9.951484e+00 5.667374e+00
      vertex -6.337777e+01 1.382816e+01 0.000000e+00
      vertex -6.337777e+01 1.382816e+01 5.667374e+00
    endloop
  endfacet
  facet normal -1.836970e-16 1.000000e+00 -3.061617e-16
    outer loop
      vertex -4.875217e+00 9.951484e+00 5.667374e+00
      vertex 4.875210e+00 9.951484e+00 2.842171e-14
      vertex -4.875217e+00 9.951484e+00 2.842171e-14
    endloop
  endfacet
  facet normal -1.836970e-16 1.000000e+00 -3.061617e-16
    outer loop
      vertex 4.875210e+00 9.951484e+00 2.842171e-14
      vertex -4.875217e+00 9.951484e+00 5.667374e+00
      vertex 4.875210e+00 9.951484e+00 5.667374e+00
    endloop
  endfacet
  facet normal 1.000000e+00 1.836970e-16 3.673940e-16
    outer loop
      vertex 7.312819e+01 1.382816e+01 5.684342e-14
      vertex 7.312819e+01 9.951484e+00 5.667374e+00
      vertex 7.312819e+01 9.951484e+00 5.684342e-14
    endloop
  endfacet
  facet normal 1.000000e+00 1.836970e-16 3.673940e-16
    outer loop
      vertex 7.312819e+01 9.951484e+00 5.667374e+00
      vertex 7.312819e+01 1.382816e+01 5.684342e-14
      vertex 7.312819e+01 1.382816e+01 5.667374e+00
    endloop
  endfacet
  facet normal 1.000000e+00 1.836970e-16 3.673940e-16
    outer loop
      vertex 3.412649e+01 1.382816e+01 2.842171e-14
      vertex 3.412649e+01 9.951484e+00 5.667374e+00
      vertex 3.412649e+01 9.951484e+00 2.842171e-14
    endloop
  endfacet
  facet normal 1.000000e+00 1.836970e-16 3.673940e-16
    outer loop
      vertex 3.412649e+01 9.951484e+00 5.667374e+00
      vertex 3.412649e+01 1.382816e+01 2.842171e-14
      vertex 3.412649e+01 1.382816e+01 5.667374e+00
    endloop
  endfacet
  facet normal 1.000000e+00 1.836970e-16 3.673940e-16
    outer loop
      vertex -4.387691e+01 1.382816e+01 0.000000e+00
      vertex -4.387691e+01 9.951484e+00 5.667374e+00
      vertex -4.387691e+01 9.951484e+00 0.000000e+00
    endloop
  endfacet
  facet normal 1.000000e+00 1.836970e-16 3.673940e-16
    outer loop
      vertex -4.387691e+01 9.951484e+00 5.667374e+00
      vertex -4.387691e+01 1.382816e+01 0.000000e+00
      vertex -4.387691e+01 1.382816e+01 5.667374e+00
    endloop
  endfacet
  facet normal 1.000000e+00 1.836970e-16 3.673940e-16
    outer loop
      vertex -4.875217e+00 1.382816e+01 2.842171e-14
      vertex -4.875217e+00 9.951484e+00 5.667374e+00
      vertex -4.875217e+00 9.951484e+00 2.842171e-14
    endloop
  endfacet
  facet normal 1.000000e+00 1.836970e-16 3.673940e-16
    outer loop
      vertex -4.875217e+00 9.951484e+00 5.667374e+00
      vertex -4.875217e+00 1.382816e+01 2.842171e-14
      vertex -4.875217e+00 1.382816e+01 5.667374e+00
    endloop
  endfacet
  facet normal -1.836970e-16 1.000000e+00 -3.061617e-16
    outer loop
      vertex -6.337777e+01 9.951484e+00 5.667374e+00
      vertex -5.362734e+01 9.951484e+00 0.000000e+00
      vertex -6.337777e+01 9.951484e+00 0.000000e+00
    endloop
  endfacet
  facet normal -1.836970e-16 1.000000e+00 -3.061617e-16
    outer loop
      vertex -5.362734e+01 9.951484e+00 0.000000e+00
      vertex -6.337777e+01 9.951484e+00 5.667374e+00
      vertex -5.362734e+01 9.951484e+00 2.740021e+00
    endloop
  endfacet
  facet normal -1.836970e-16 1.000000e+00 -3.061617e-16
    outer loop
      vertex -5.362734e+01 9.951484e+00 2.740021e+00
      vertex -6.337777e+01 9.951484e+00 5.667374e+00
      vertex -5.362734e+01 9.951484e+00 5.667374e+00
    endloop
  endfacet
  facet normal 1.000000e+00 1.836970e-16 3.673940e-16
    outer loop
      vertex 1.462564e+01 1.382816e+01 2.842171e-14
      vertex 1.462564e+01 9.951484e+00 5.667374e+00
      vertex 1.462564e+01 9.951484e+00 2.842171e-14
    endloop
  endfacet
  facet normal 1.000000e+00 1.836970e-16 3.673940e-16
    outer loop
      vertex 1.462564e+01 9.951484e+00 5.667374e+00
      vertex 1.462564e+01 1.382816e+01 2.842171e-14
      vertex 1.462564e+01 1.382816e+01 5.667374e+00
    endloop
  endfacet
  facet normal -1.836970e-16 1.000000e+00 -3.061617e-16
    outer loop
      vertex 6.337777e+01 1.382816e+01 5.667374e+00
      vertex 7.312819e+01 1.382816e+01 5.684342e-14
      vertex 6.337777e+01 1.382816e+01 5.684342e-14
    endloop
  endfacet
  facet normal -1.836970e-16 1.000000e+00 -3.061617e-16
    outer loop
      vertex 7.312819e+01 1.382816e+01 5.684342e-14
      vertex 6.337777e+01 1.382816e+01 5.667374e+00
      vertex 7.312819e+01 1.382816e+01 5.667374e+00
    endloop
  endfacet
  facet normal 1.628619e-16 -1.000000e+00 3.061617e-16
    outer loop
      vertex 7.312819e+01 4.450796e+00 5.667374e+00
      vertex -7.312819e+01 4.450796e+00 0.000000e+00
      vertex 7.312819e+01 4.450796e+00 5.684342e-14
    endloop
  endfacet
  facet normal 1.628619e-16 -1.000000e+00 3.061617e-16
    outer loop
      vertex -7.312819e+01 4.450796e+00 0.000000e+00
      vertex 7.312819e+01 4.450796e+00 5.667374e+00
      vertex -7.312819e+01 4.450796e+00 5.667374e+00
    endloop
  endfacet
  facet normal -1.836970e-16 1.000000e+00 -3.061617e-16
    outer loop
      vertex 3.412649e+01 9.951484e+00 5.667374e+00
      vertex 4.387692e+01 9.951484e+00 2.842171e-14
      vertex 3.412649e+01 9.951484e+00 2.842171e-14
    endloop
  endfacet
  facet normal -1.836970e-16 1.000000e+00 -3.061617e-16
    outer loop
      vertex 4.387692e+01 9.951484e+00 2.842171e-14
      vertex 3.412649e+01 9.951484e+00 5.667374e+00
      vertex 4.387692e+01 9.951484e+00 5.667374e+00
    endloop
  endfacet
  facet normal -1.000000e+00 -1.836970e-16 -3.673940e-16
    outer loop
      vertex 4.875210e+00 1.382816e+01 5.667374e+00
      vertex 4.875210e+00 9.951484e+00 2.842171e-14
      vertex 4.875210e+00 9.951484e+00 5.667374e+00
    endloop
  endfacet
  facet normal -1.000000e+00 -1.836970e-16 -3.673940e-16
    outer loop
      vertex 4.875210e+00 9.951484e+00 2.842171e-14
      vertex 4.875210e+00 1.382816e+01 5.667374e+00
      vertex 4.875210e+00 1.382816e+01 2.842171e-14
    endloop
  endfacet
  facet normal 3.673940e-16 -3.061617e-16 -1.000000e+00
    outer loop
      vertex -4.387691e+01 1.382816e+01 0.000000e+00
      vertex -5.362734e+01 9.951484e+00 0.000000e+00
      vertex -5.362734e+01 1.382816e+01 0.000000e+00
    endloop
  endfacet
  facet normal 3.673940e-16 -3.061617e-16 -1.000000e+00
    outer loop
      vertex -2.437606e+01 1.382816e+01 0.000000e+00
      vertex -3.412648e+01 9.951484e+00 0.000000e+00
      vertex -3.412648e+01 1.382816e+01 0.000000e+00
    endloop
  endfacet
  facet normal 3.673940e-16 -3.061617e-16 -1.000000e+00
    outer loop
      vertex -4.875217e+00 1.382816e+01 2.842171e-14
      vertex -1.462563e+01 9.951484e+00 2.842171e-14
      vertex -1.462563e+01 1.382816e+01 2.842171e-14
    endloop
  endfacet
  facet normal 3.673940e-16 -3.061617e-16 -1.000000e+00
    outer loop
      vertex 1.462564e+01 1.382816e+01 2.842171e-14
      vertex 4.875210e+00 9.951484e+00 2.842171e-14
      vertex 4.875210e+00 1.382816e+01 2.842171e-14
    endloop
  endfacet
  facet normal 3.673940e-16 -3.061617e-16 -1.000000e+00
    outer loop
      vertex 3.412649e+01 1.382816e+01 2.842171e-14
      vertex 2.437606e+01 9.951484e+00 2.842171e-14
      vertex 2.437606e+01 1.382816e+01 2.842171e-14
    endloop
  endfacet
  facet normal 3.673940e-16 -3.061617e-16 -1.000000e+00
    outer loop
      vertex 5.362734e+01 1.382816e+01 2.842171e-14
      vertex 4.387692e+01 9.951484e+00 2.842171e-14
      vertex 4.387692e+01 1.382816e+01 2.842171e-14
    endloop
  endfacet
  facet normal 3.673940e-16 -3.061617e-16 -1.000000e+00
    outer loop
      vertex 7.312819e+01 1.382816e+01 5.684342e-14
      vertex 6.337777e+01 9.951484e+00 5.684342e-14
      vertex 6.337777e+01 1.382816e+01 5.684342e-14
    endloop
  endfacet
  facet normal 3.673940e-16 -3.061617e-16 -1.000000e+00
    outer loop
      vertex -6.337777e+01 1.382816e+01 0.000000e+00
      vertex -7.312819e+01 4.450796e+00 0.000000e+00
      vertex -7.312819e+01 1.382816e+01 0.000000e+00
    endloop
  endfacet
  facet normal 3.673940e-16 -3.061617e-16 -1.000000e+00
    outer loop
      vertex -7.312819e+01 4.450796e+00 0.000000e+00
      vertex -6.337777e+01 1.382816e+01 0.000000e+00
      vertex -6.337777e+01 9.951484e+00 0.000000e+00
    endloop
  endfacet
  facet normal 3.673940e-16 -3.061617e-16 -1.000000e+00
    outer loop
      vertex -7.312819e+01 4.450796e+00 0.000000e+00
      vertex -6.337777e+01 9.951484e+00 0.000000e+00
      vertex 7.312819e+01 4.450796e+00 5.684342e-14
    endloop
  endfacet
  facet normal 3.673940e-16 -3.061617e-16 -1.000000e+00
    outer loop
      vertex 7.312819e+01 4.450796e+00 5.684342e-14
      vertex -6.337777e+01 9.951484e+00 0.000000e+00
      vertex -5.362734e+01 9.951484e+00 0.000000e+00
    endloop
  endfacet
  facet normal 3.673940e-16 -3.061617e-16 -1.000000e+00
    outer loop
      vertex 7.312819e+01 4.450796e+00 5.684342e-14
      vertex -5.362734e+01 9.951484e+00 0.000000e+00
      vertex -4.387691e+01 9.951484e+00 0.000000e+00
    endloop
  endfacet
  facet normal 3.673940e-16 -3.061617e-16 -1.000000e+00
    outer loop
      vertex -4.387691e+01 9.951484e+00 0.000000e+00
      vertex -5.362734e+01 9.951484e+00 0.000000e+00
      vertex -4.387691e+01 1.382816e+01 0.000000e+00
    endloop
  endfacet
  facet normal 3.673940e-16 -3.061617e-16 -1.000000e+00
    outer loop
      vertex 7.312819e+01 4.450796e+00 5.684342e-14
      vertex -4.387691e+01 9.951484e+00 0.000000e+00
      vertex -3.412648e+01 9.951484e+00 0.000000e+00
    endloop
  endfacet
  facet normal 3.673940e-16 -3.061617e-16 -1.000000e+00
    outer loop
      vertex 7.312819e+01 4.450796e+00 5.684342e-14
      vertex -3.412648e+01 9.951484e+00 0.000000e+00
      vertex -2.437606e+01 9.951484e+00 0.000000e+00
    endloop
  endfacet
  facet normal 3.673940e-16 -3.061617e-16 -1.000000e+00
    outer loop
      vertex -2.437606e+01 9.951484e+00 0.000000e+00
      vertex -3.412648e+01 9.951484e+00 0.000000e+00
      vertex -2.437606e+01 1.382816e+01 0.000000e+00
    endloop
  endfacet
  facet normal 3.673940e-16 -3.061617e-16 -1.000000e+00
    outer loop
      vertex 7.312819e+01 4.450796e+00 5.684342e-14
      vertex -2.437606e+01 9.951484e+00 0.000000e+00
      vertex -1.462563e+01 9.951484e+00 2.842171e-14
    endloop
  endfacet
  facet normal 3.673940e-16 -3.061617e-16 -1.000000e+00
    outer loop
      vertex 7.312819e+01 4.450796e+00 5.684342e-14
      vertex -1.462563e+01 9.951484e+00 2.842171e-14
      vertex -4.875217e+00 9.951484e+00 2.842171e-14
    endloop
  endfacet
  facet normal 3.673940e-16 -3.061617e-16 -1.000000e+00
    outer loop
      vertex -4.875217e+00 9.951484e+00 2.842171e-14
      vertex -1.462563e+01 9.951484e+00 2.842171e-14
      vertex -4.875217e+00 1.382816e+01 2.842171e-14
    endloop
  endfacet
  facet normal 3.673940e-16 -3.061617e-16 -1.000000e+00
    outer loop
      vertex 7.312819e+01 4.450796e+00 5.684342e-14
      vertex -4.875217e+00 9.951484e+00 2.842171e-14
      vertex 4.875210e+00 9.951484e+00 2.842171e-14
    endloop
  endfacet
  facet normal 3.673940e-16 -3.061617e-16 -1.000000e+00
    outer loop
      vertex 7.312819e+01 4.450796e+00 5.684342e-14
      vertex 4.875210e+00 9.951484e+00 2.842171e-14
      vertex 1.462564e+01 9.951484e+00 2.842171e-14
    endloop
  endfacet
  facet normal 3.673940e-16 -3.061617e-16 -1.000000e+00
    outer loop
      vertex 1.462564e+01 9.951484e+00 2.842171e-14
      vertex 4.875210e+00 9.951484e+00 2.842171e-14
      vertex 1.462564e+01 1.382816e+01 2.842171e-14
    endloop
  endfacet
  facet normal 3.673940e-16 -3.061617e-16 -1.000000e+00
    outer loop
      vertex 7.312819e+01 4.450796e+00 5.684342e-14
      vertex 1.462564e+01 9.951484e+00 2.842171e-14
      vertex 2.437606e+01 9.951484e+00 2.842171e-14
    endloop
  endfacet
  facet normal 3.673940e-16 -3.061617e-16 -1.000000e+00
    outer loop
      vertex 7.312819e+01 4.450796e+00 5.684342e-14
      vertex 2.437606e+01 9.951484e+00 2.842171e-14
      vertex 3.412649e+01 9.951484e+00 2.842171e-14
    endloop
  endfacet
  facet normal 3.673940e-16 -3.061617e-16 -1.000000e+00
    outer loop
      vertex 3.412649e+01 9.951484e+00 2.842171e-14
      vertex 2.437606e+01 9.951484e+00 2.842171e-14
      vertex 3.412649e+01 1.382816e+01 2.842171e-14
    endloop
  endfacet
  facet normal 3.673940e-16 -3.061617e-16 -1.000000e+00
    outer loop
      vertex 7.312819e+01 4.450796e+00 5.684342e-14
      vertex 3.412649e+01 9.951484e+00 2.842171e-14
      vertex 4.387692e+01 9.951484e+00 2.842171e-14
    endloop
  endfacet
  facet normal 3.673940e-16 -3.061617e-16 -1.000000e+00
    outer loop
      vertex 7.312819e+01 4.450796e+00 5.684342e-14
      vertex 4.387692e+01 9.951484e+00 2.842171e-14
      vertex 5.362734e+01 9.951484e+00 2.842171e-14
    endloop
  endfacet
  facet normal 3.673940e-16 -3.061617e-16 -1.000000e+00
    outer loop
      vertex 5.362734e+01 9.951484e+00 2.842171e-14
      vertex 4.387692e+01 9.951484e+00 2.842171e-14
      vertex 5.362734e+01 1.382816e+01 2.842171e-14
    endloop
  endfacet
  facet normal 3.673940e-16 -3.061617e-16 -1.000000e+00
    outer loop
      vertex 7.312819e+01 4.450796e+00 5.684342e-14
      vertex 5.362734e+01 9.951484e+00 2.842171e-14
      vertex 6.337777e+01 9.951484e+00 5.684342e-14
    endloop
  endfacet
  facet normal 3.673940e-16 -3.061617e-16 -1.000000e+00
    outer loop
      vertex 7.312819e+01 4.450796e+00 5.684342e-14
      vertex 6.337777e+01 9.951484e+00 5.684342e-14
      vertex 7.312819e+01 1.382816e+01 5.684342e-14
    endloop
  endfacet
  facet normal 3.673940e-16 -3.061617e-16 -1.000000e+00
    outer loop
      vertex 7.312819e+01 4.450796e+00 5.684342e-14
      vertex 7.312819e+01 1.382816e+01 5.684342e-14
      vertex 7.312819e+01 9.951484e+00 5.684342e-14
    endloop
  endfacet
  facet normal -1.836970e-16 1.000000e+00 -3.061617e-16
    outer loop
      vertex 4.875210e+00 1.382816e+01 5.667374e+00
      vertex 1.462564e+01 1.382816e+01 2.842171e-14
      vertex 4.875210e+00 1.382816e+01 2.842171e-14
    endloop
  endfacet
  facet normal -1.836970e-16 1.000000e+00 -3.061617e-16
    outer loop
      vertex 1.462564e+01 1.382816e+01 2.842171e-14
      vertex 4.875210e+00 1.382816e+01 5.667374e+00
      vertex 1.462564e+01 1.382816e+01 5.667374e+00
    endloop
  endfacet
  facet normal -1.836970e-16 1.000000e+00 -3.061617e-16
    outer loop
      vertex -5.362734e+01 1.382816e+01 5.667374e+00
      vertex -4.387691e+01 1.382816e+01 0.000000e+00
      vertex -5.362734e+01 1.382816e+01 0.000000e+00
    endloop
  endfacet
  facet normal -1.836970e-16 1.000000e+00 -3.061617e-16
    outer loop
      vertex -4.387691e+01 1.382816e+01 0.000000e+00
      vertex -5.362734e+01 1.382816e+01 5.667374e+00
      vertex -4.387691e+01 1.382816e+01 5.667374e+00
    endloop
  endfacet
  facet normal -1.000000e+00 -1.836970e-16 -3.673940e-16
    outer loop
      vertex 2.437606e+01 1.382816e+01 5.667374e+00
      vertex 2.437606e+01 9.951484e+00 2.842171e-14
      vertex 2.437606e+01 9.951484e+00 5.667374e+00
    endloop
  endfacet
  facet normal -1.000000e+00 -1.836970e-16 -3.673940e-16
    outer loop
      vertex 2.437606e+01 9.951484e+00 2.842171e-14
      vertex 2.437606e+01 1.382816e+01 5.667374e+00
      vertex 2.437606e+01 1.382816e+01 2.842171e-14
    endloop
  endfacet
  facet normal -1.836970e-16 1.000000e+00 -3.061617e-16
    outer loop
      vertex -2.437606e+01 9.951484e+00 5.667374e+00
      vertex -1.462563e+01 9.951484e+00 2.842171e-14
      vertex -2.437606e+01 9.951484e+00 0.000000e+00
    endloop
  endfacet
  facet normal -1.836970e-16 1.000000e+00 -3.061617e-16
    outer loop
      vertex -1.462563e+01 9.951484e+00 2.842171e-14
      vertex -2.437606e+01 9.951484e+00 5.667374e+00
      vertex -1.462563e+01 9.951484e+00 2.740021e+00
    endloop
  endfacet
  facet normal -1.836970e-16 1.000000e+00 -3.061617e-16
    outer loop
      vertex -1.462563e+01 9.951484e+00 2.740021e+00
      vertex -2.437606e+01 9.951484e+00 5.667374e+00
      vertex -1.462563e+01 9.951484e+00 5.667374e+00
    endloop
  endfacet
  facet normal -1.836970e-16 1.000000e+00 -3.061617e-16
    outer loop
      vertex 2.437606e+01 1.382816e+01 5.667374e+00
      vertex 3.412649e+01 1.382816e+01 2.842171e-14
      vertex 2.437606e+01 1.382816e+01 2.842171e-14
    endloop
  endfacet
  facet normal -1.836970e-16 1.000000e+00 -3.061617e-16
    outer loop
      vertex 3.412649e+01 1.382816e+01 2.842171e-14
      vertex 2.437606e+01 1.382816e+01 5.667374e+00
      vertex 3.412649e+01 1.382816e+01 5.667374e+00
    endloop
  endfacet
  facet normal -1.836970e-16 1.000000e+00 -3.061617e-16
    outer loop
      vertex 5.362734e+01 9.951484e+00 5.667374e+00
      vertex 6.337777e+01 9.951484e+00 5.684342e-14
      vertex 5.362734e+01 9.951484e+00 2.842171e-14
    endloop
  endfacet
  facet normal -1.836970e-16 1.000000e+00 -3.061617e-16
    outer loop
      vertex 6.337777e+01 9.951484e+00 5.684342e-14
      vertex 5.362734e+01 9.951484e+00 5.667374e+00
      vertex 6.337777e+01 9.951484e+00 5.667374e+00
    endloop
  endfacet
  facet normal -1.000000e+00 -1.836970e-16 -3.673940e-16
    outer loop
      vertex -3.412648e+01 1.382816e+01 5.667374e+00
      vertex -3.412648e+01 9.951484e+00 2.740021e+00
      vertex -3.412648e+01 9.951484e+00 5.667374e+00
    endloop
  endfacet
  facet normal -1.000000e+00 -1.836970e-16 -3.673940e-16
    outer loop
      vertex -3.412648e+01 9.951484e+00 2.740021e+00
      vertex -3.412648e+01 1.382816e+01 0.000000e+00
      vertex -3.412648e+01 9.951484e+00 0.000000e+00
    endloop
  endfacet
  facet normal -1.000000e+00 -1.836970e-16 -3.673940e-16
    outer loop
      vertex -3.412648e+01 1.382816e+01 0.000000e+00
      vertex -3.412648e+01 9.951484e+00 2.740021e+00
      vertex -3.412648e+01 1.382816e+01 5.667374e+00
    endloop
  endfacet
  facet normal -1.000000e+00 -1.836970e-16 -3.673940e-16
    outer loop
      vertex -7.312819e+01 1.382816e+01 5.667374e+00
      vertex -7.312819e+01 4.450796e+00 0.000000e+00
      vertex -7.312819e+01 4.450796e+00 5.667374e+00
    endloop
  endfacet
  facet normal -1.000000e+00 -1.836970e-16 -3.673940e-16
    outer loop
      vertex -7.312819e+01 4.450796e+00 0.000000e+00
      vertex -7.312819e+01 1.382816e+01 5.667374e+00
      vertex -7.312819e+01 1.382816e+01 0.000000e+00
    endloop
  endfacet
  facet normal 1.000000e+00 1.836970e-16 3.673940e-16
    outer loop
      vertex -2.437606e+01 1.382816e+01 0.000000e+00
      vertex -2.437606e+01 9.951484e+00 5.667374e+00
      vertex -2.437606e+01 9.951484e+00 0.000000e+00
    endloop
  endfacet
  facet normal 1.000000e+00 1.836970e-16 3.673940e-16
    outer loop
      vertex -2.437606e+01 9.951484e+00 5.667374e+00
      vertex -2.437606e+01 1.382816e+01 0.000000e+00
      vertex -2.437606e+01 1.382816e+01 5.667374e+00
    endloop
  endfacet
  facet normal 1.375821e-17 1.000000e+00 -3.005489e-16
    outer loop
      vertex -4.387691e+01 9.951484e+00 5.667374e+00
      vertex -3.412648e+01 9.951484e+00 0.000000e+00
      vertex -4.387691e+01 9.951484e+00 0.000000e+00
    endloop
  endfacet
  facet normal 1.375821e-17 1.000000e+00 -3.005489e-16
    outer loop
      vertex -3.412648e+01 9.951484e+00 0.000000e+00
      vertex -4.387691e+01 9.951484e+00 5.667374e+00
      vertex -3.412648e+01 9.951484e+00 2.740021e+00
    endloop
  endfacet
  facet normal 1.375821e-17 1.000000e+00 -3.005489e-16
    outer loop
      vertex -3.412648e+01 9.951484e+00 2.740021e+00
      vertex -4.387691e+01 9.951484e+00 5.667374e+00
      vertex -3.412648e+01 9.951484e+00 5.667374e+00
    endloop
  endfacet
  facet normal 1.000000e+00 1.836970e-16 3.673940e-16
    outer loop
      vertex 7.312819e+01 9.951484e+00 5.684342e-14
      vertex 7.312819e+01 4.450796e+00 5.667374e+00
      vertex 7.312819e+01 4.450796e+00 5.684342e-14
    endloop
  endfacet
  facet normal 1.000000e+00 1.836970e-16 3.673940e-16
    outer loop
      vertex 7.312819e+01 4.450796e+00 5.667374e+00
      vertex 7.312819e+01 9.951484e+00 5.684342e-14
      vertex 7.312819e+01 9.951484e+00 5.667374e+00
    endloop
  endfacet
  facet normal -3.673940e-16 3.061617e-16 1.000000e+00
    outer loop
      vertex -7.312819e+01 4.450796e+00 5.667374e+00
      vertex -6.337777e+01 9.951484e+00 5.667374e+00
      vertex -7.312819e+01 1.382816e+01 5.667374e+00
    endloop
  endfacet
  facet normal -3.673940e-16 3.061617e-16 1.000000e+00
    outer loop
      vertex -6.337777e+01 9.951484e+00 5.667374e+00
      vertex -7.312819e+01 4.450796e+00 5.667374e+00
      vertex 7.312819e+01 4.450796e+00 5.667374e+00
    endloop
  endfacet
  facet normal -3.673940e-16 3.061617e-16 1.000000e+00
    outer loop
      vertex -6.337777e+01 9.951484e+00 5.667374e+00
      vertex 7.312819e+01 4.450796e+00 5.667374e+00
      vertex -5.362734e+01 9.951484e+00 5.667374e+00
    endloop
  endfacet
  facet normal -3.673940e-16 3.061617e-16 1.000000e+00
    outer loop
      vertex -5.362734e+01 9.951484e+00 5.667374e+00
      vertex 7.312819e+01 4.450796e+00 5.667374e+00
      vertex -4.387691e+01 9.951484e+00 5.667374e+00
    endloop
  endfacet
  facet normal -3.673940e-16 3.061617e-16 1.000000e+00
    outer loop
      vertex -5.362734e+01 9.951484e+00 5.667374e+00
      vertex -4.387691e+01 9.951484e+00 5.667374e+00
      vertex -5.362734e+01 1.382816e+01 5.667374e+00
    endloop
  endfacet
  facet normal -3.673940e-16 3.061617e-16 1.000000e+00
    outer loop
      vertex -4.387691e+01 9.951484e+00 5.667374e+00
      vertex 7.312819e+01 4.450796e+00 5.667374e+00
      vertex -3.412648e+01 9.951484e+00 5.667374e+00
    endloop
  endfacet
  facet normal -3.673940e-16 3.061617e-16 1.000000e+00
    outer loop
      vertex -3.412648e+01 9.951484e+00 5.667374e+00
      vertex 7.312819e+01 4.450796e+00 5.667374e+00
      vertex -2.437606e+01 9.951484e+00 5.667374e+00
    endloop
  endfacet
  facet normal -3.673940e-16 3.061617e-16 1.000000e+00
    outer loop
      vertex -3.412648e+01 9.951484e+00 5.667374e+00
      vertex -2.437606e+01 9.951484e+00 5.667374e+00
      vertex -3.412648e+01 1.382816e+01 5.667374e+00
    endloop
  endfacet
  facet normal -3.673940e-16 3.061617e-16 1.000000e+00
    outer loop
      vertex -2.437606e+01 9.951484e+00 5.667374e+00
      vertex 7.312819e+01 4.450796e+00 5.667374e+00
      vertex -1.462563e+01 9.951484e+00 5.667374e+00
    endloop
  endfacet
  facet normal -3.673940e-16 3.061617e-16 1.000000e+00
    outer loop
      vertex -1.462563e+01 9.951484e+00 5.667374e+00
      vertex 7.312819e+01 4.450796e+00 5.667374e+00
      vertex -4.875217e+00 9.951484e+00 5.667374e+00
    endloop
  endfacet
  facet normal -3.673940e-16 3.061617e-16 1.000000e+00
    outer loop
      vertex -1.462563e+01 9.951484e+00 5.667374e+00
      vertex -4.875217e+00 9.951484e+00 5.667374e+00
      vertex -1.462563e+01 1.382816e+01 5.667374e+00
    endloop
  endfacet
  facet normal -3.673940e-16 3.061617e-16 1.000000e+00
    outer loop
      vertex -4.875217e+00 9.951484e+00 5.667374e+00
      vertex 7.312819e+01 4.450796e+00 5.667374e+00
      vertex 4.875210e+00 9.951484e+00 5.667374e+00
    endloop
  endfacet
  facet normal -3.673940e-16 3.061617e-16 1.000000e+00
    outer loop
      vertex 4.875210e+00 9.951484e+00 5.667374e+00
      vertex 7.312819e+01 4.450796e+00 5.667374e+00
      vertex 1.462564e+01 9.951484e+00 5.667374e+00
    endloop
  endfacet
  facet normal -3.673940e-16 3.061617e-16 1.000000e+00
    outer loop
      vertex 4.875210e+00 9.951484e+00 5.667374e+00
      vertex 1.462564e+01 9.951484e+00 5.667374e+00
      vertex 4.875210e+00 1.382816e+01 5.667374e+00
    endloop
  endfacet
  facet normal -3.673940e-16 3.061617e-16 1.000000e+00
    outer loop
      vertex 1.462564e+01 9.951484e+00 5.667374e+00
      vertex 7.312819e+01 4.450796e+00 5.667374e+00
      vertex 2.437606e+01 9.951484e+00 5.667374e+00
    endloop
  endfacet
  facet normal -3.673940e-16 3.061617e-16 1.000000e+00
    outer loop
      vertex 2.437606e+01 9.951484e+00 5.667374e+00
      vertex 7.312819e+01 4.450796e+00 5.667374e+00
      vertex 3.412649e+01 9.951484e+00 5.667374e+00
    endloop
  endfacet
  facet normal -3.673940e-16 3.061617e-16 1.000000e+00
    outer loop
      vertex 2.437606e+01 9.951484e+00 5.667374e+00
      vertex 3.412649e+01 9.951484e+00 5.667374e+00
      vertex 2.437606e+01 1.382816e+01 5.667374e+00
    endloop
  endfacet
  facet normal -3.673940e-16 3.061617e-16 1.000000e+00
    outer loop
      vertex 3.412649e+01 9.951484e+00 5.667374e+00
      vertex 7.312819e+01 4.450796e+00 5.667374e+00
      vertex 4.387692e+01 9.951484e+00 5.667374e+00
    endloop
  endfacet
  facet normal -3.673940e-16 3.061617e-16 1.000000e+00
    outer loop
      vertex 4.387692e+01 9.951484e+00 5.667374e+00
      vertex 7.312819e+01 4.450796e+00 5.667374e+00
      vertex 5.362734e+01 9.951484e+00 5.667374e+00
    endloop
  endfacet
  facet normal -3.673940e-16 3.061617e-16 1.000000e+00
    outer loop
      vertex 4.387692e+01 9.951484e+00 5.667374e+00
      vertex 5.362734e+01 9.951484e+00 5.667374e+00
      vertex 4.387692e+01 1.382816e+01 5.667374e+00
    endloop
  endfacet
  facet normal -3.673940e-16 3.061617e-16 1.000000e+00
    outer loop
      vertex 5.362734e+01 9.951484e+00 5.667374e+00
      vertex 7.312819e+01 4.450796e+00 5.667374e+00
      vertex 6.337777e+01 9.951484e+00 5.667374e+00
    endloop
  endfacet
  facet normal -3.673940e-16 3.061617e-16 1.000000e+00
    outer loop
      vertex 6.337777e+01 9.951484e+00 5.667374e+00
      vertex 7.312819e+01 4.450796e+00 5.667374e+00
      vertex 6.337777e+01 1.382816e+01 5.667374e+00
    endloop
  endfacet
  facet normal -3.673940e-16 3.061617e-16 1.000000e+00
    outer loop
      vertex 6.337777e+01 1.382816e+01 5.667374e+00
      vertex 7.312819e+01 4.450796e+00 5.667374e+00
      vertex 7.312819e+01 1.382816e+01 5.667374e+00
    endloop
  endfacet
  facet normal -3.673940e-16 3.061617e-16 1.000000e+00
    outer loop
      vertex 7.312819e+01 1.382816e+01 5.667374e+00
      vertex 7.312819e+01 4.450796e+00 5.667374e+00
      vertex 7.312819e+01 9.951484e+00 5.667374e+00
    endloop
  endfacet
  facet normal -3.673940e-16 3.061617e-16 1.000000e+00
    outer loop
      vertex 5.362734e+01 1.382816e+01 5.667374e+00
      vertex 4.387692e+01 1.382816e+01 5.667374e+00
      vertex 5.362734e+01 9.951484e+00 5.667374e+00
    endloop
  endfacet
  facet normal -3.673940e-16 3.061617e-16 1.000000e+00
    outer loop
      vertex 3.412649e+01 1.382816e+01 5.667374e+00
      vertex 2.437606e+01 1.382816e+01 5.667374e+00
      vertex 3.412649e+01 9.951484e+00 5.667374e+00
    endloop
  endfacet
  facet normal -3.673940e-16 3.061617e-16 1.000000e+00
    outer loop
      vertex 1.462564e+01 1.382816e+01 5.667374e+00
      vertex 4.875210e+00 1.382816e+01 5.667374e+00
      vertex 1.462564e+01 9.951484e+00 5.667374e+00
    endloop
  endfacet
  facet normal -3.673940e-16 3.061617e-16 1.000000e+00
    outer loop
      vertex -4.875217e+00 1.382816e+01 5.667374e+00
      vertex -1.462563e+01 1.382816e+01 5.667374e+00
      vertex -4.875217e+00 9.951484e+00 5.667374e+00
    endloop
  endfacet
  facet normal -3.673940e-16 3.061617e-16 1.000000e+00
    outer loop
      vertex -2.437606e+01 1.382816e+01 5.667374e+00
      vertex -3.412648e+01 1.382816e+01 5.667374e+00
      vertex -2.437606e+01 9.951484e+00 5.667374e+00
    endloop
  endfacet
  facet normal -3.673940e-16 3.061617e-16 1.000000e+00
    outer loop
      vertex -4.387691e+01 1.382816e+01 5.667374e+00
      vertex -5.362734e+01 1.382816e+01 5.667374e+00
      vertex -4.387691e+01 9.951484e+00 5.667374e+00
    endloop
  endfacet
  facet normal -3.673940e-16 3.061617e-16 1.000000e+00
    outer loop
      vertex -6.337777e+01 1.382816e+01 5.667374e+00
      vertex -7.312819e+01 1.382816e+01 5.667374e+00
      vertex -6.337777e+01 9.951484e+00 5.667374e+00
    endloop
  endfacet
  facet normal 1.000000e+00 1.836970e-16 3.673940e-16
    outer loop
      vertex 3.412649e+01 -4.450797e+00 2.842171e-14
      vertex 3.412649e+01 -8.327472e+00 5.667374e+00
      vertex 3.412649e+01 -8.327472e+00 2.842171e-14
    endloop
  endfacet
  facet normal 1.000000e+00 1.836970e-16 3.673940e-16
    outer loop
      vertex 3.412649e+01 -8.327472e+00 5.667374e+00
      vertex 3.412649e+01 -4.450797e+00 2.842171e-14
      vertex 3.412649e+01 -4.450797e+00 5.667374e+00
    endloop
  endfacet
  facet normal -1.000000e+00 -1.836970e-16 -3.673940e-16
    outer loop
      vertex 2.437606e+01 -4.450797e+00 5.667374e+00
      vertex 2.437606e+01 -8.327472e+00 2.842171e-14
      vertex 2.437606e+01 -8.327472e+00 5.667374e+00
    endloop
  endfacet
  facet normal -1.000000e+00 -1.836970e-16 -3.673940e-16
    outer loop
      vertex 2.437606e+01 -8.327472e+00 2.842171e-14
      vertex 2.437606e+01 -4.450797e+00 5.667374e+00
      vertex 2.437606e+01 -4.450797e+00 2.842171e-14
    endloop
  endfacet
  facet normal -1.836970e-16 1.000000e+00 -3.061617e-16
    outer loop
      vertex -3.412648e+01 -4.450797e+00 5.667374e+00
      vertex -2.437606e+01 -4.450797e+00 0.000000e+00
      vertex -3.412648e+01 -4.450797e+00 0.000000e+00
    endloop
  endfacet
  facet normal -1.836970e-16 1.000000e+00 -3.061617e-16
    outer loop
      vertex -2.437606e+01 -4.450797e+00 0.000000e+00
      vertex -3.412648e+01 -4.450797e+00 5.667374e+00
      vertex -2.437606e+01 -4.450797e+00 5.667374e+00
    endloop
  endfacet
  facet normal -1.000000e+00 -1.836970e-16 -3.673940e-16
    outer loop
      vertex -1.462563e+01 -4.450797e+00 5.667374e+00
      vertex -1.462563e+01 -8.327472e+00 2.740021e+00
      vertex -1.462563e+01 -8.327472e+00 5.667374e+00
    endloop
  endfacet
  facet normal -1.000000e+00 -1.836970e-16 -3.673940e-16
    outer loop
      vertex -1.462563e+01 -8.327472e+00 2.740021e+00
      vertex -1.462563e+01 -4.450797e+00 5.667374e+00
      vertex -1.462563e+01 -8.327472e+00 2.842171e-14
    endloop
  endfacet
  facet normal -1.000000e+00 -1.836970e-16 -3.673940e-16
    outer loop
      vertex -1.462563e+01 -8.327472e+00 2.842171e-14
      vertex -1.462563e+01 -4.450797e+00 5.667374e+00
      vertex -1.462563e+01 -4.450797e+00 2.842171e-14
    endloop
  endfacet
  facet normal 1.375821e-17 1.000000e+00 -3.005489e-16
    outer loop
      vertex -4.387691e+01 -8.327472e+00 5.667374e+00
      vertex -3.412648e+01 -8.327472e+00 0.000000e+00
      vertex -4.387691e+01 -8.327472e+00 0.000000e+00
    endloop
  endfacet
  facet normal 1.375821e-17 1.000000e+00 -3.005489e-16
    outer loop
      vertex -3.412648e+01 -8.327472e+00 0.000000e+00
      vertex -4.387691e+01 -8.327472e+00 5.667374e+00
      vertex -3.412648e+01 -8.327472e+00 2.740021e+00
    endloop
  endfacet
  facet normal 1.375821e-17 1.000000e+00 -3.005489e-16
    outer loop
      vertex -3.412648e+01 -8.327472e+00 2.740021e+00
      vertex -4.387691e+01 -8.327472e+00 5.667374e+00
      vertex -3.412648e+01 -8.327472e+00 5.667374e+00
    endloop
  endfacet
  facet normal -1.000000e+00 -1.836970e-16 -3.673940e-16
    outer loop
      vertex -5.362734e+01 -4.450797e+00 5.667374e+00
      vertex -5.362734e+01 -8.327472e+00 2.740021e+00
      vertex -5.362734e+01 -8.327472e+00 5.667374e+00
    endloop
  endfacet
  facet normal -1.000000e+00 -1.836970e-16 -3.673940e-16
    outer loop
      vertex -5.362734e+01 -8.327472e+00 2.740021e+00
      vertex -5.362734e+01 -4.450797e+00 5.667374e+00
      vertex -5.362734e+01 -8.327472e+00 0.000000e+00
    endloop
  endfacet
  facet normal -1.000000e+00 -1.836970e-16 -3.673940e-16
    outer loop
      vertex -5.362734e+01 -8.327472e+00 0.000000e+00
      vertex -5.362734e+01 -4.450797e+00 5.667374e+00
      vertex -5.362734e+01 -4.450797e+00 0.000000e+00
    endloop
  endfacet
  facet normal 1.639533e-16 -1.000000e+00 3.061617e-16
    outer loop
      vertex 7.312819e+01 -1.382816e+01 5.667374e+00
      vertex -7.312819e+01 -1.382816e+01 0.000000e+00
      vertex 7.312819e+01 -1.382816e+01 5.684342e-14
    endloop
  endfacet
  facet normal 1.639533e-16 -1.000000e+00 3.061617e-16
    outer loop
      vertex -7.312819e+01 -1.382816e+01 0.000000e+00
      vertex 7.312819e+01 -1.382816e+01 5.667374e+00
      vertex -7.312819e+01 -1.382816e+01 5.667374e+00
    endloop
  endfacet
  facet normal -1.836970e-16 1.000000e+00 -3.061617e-16
    outer loop
      vertex 3.412649e+01 -8.327472e+00 5.667374e+00
      vertex 4.387692e+01 -8.327472e+00 2.842171e-14
      vertex 3.412649e+01 -8.327472e+00 2.842171e-14
    endloop
  endfacet
  facet normal -1.836970e-16 1.000000e+00 -3.061617e-16
    outer loop
      vertex 4.387692e+01 -8.327472e+00 2.842171e-14
      vertex 3.412649e+01 -8.327472e+00 5.667374e+00
      vertex 4.387692e+01 -8.327472e+00 5.667374e+00
    endloop
  endfacet
  facet normal -1.836970e-16 1.000000e+00 -3.061617e-16
    outer loop
      vertex -7.312819e+01 -4.450797e+00 5.667374e+00
      vertex -6.337777e+01 -4.450797e+00 0.000000e+00
      vertex -7.312819e+01 -4.450797e+00 0.000000e+00
    endloop
  endfacet
  facet normal -1.836970e-16 1.000000e+00 -3.061617e-16
    outer loop
      vertex -6.337777e+01 -4.450797e+00 0.000000e+00
      vertex -7.312819e+01 -4.450797e+00 5.667374e+00
      vertex -6.337777e+01 -4.450797e+00 5.667374e+00
    endloop
  endfacet
  facet normal -1.836970e-16 1.000000e+00 -3.061617e-16
    outer loop
      vertex 2.437606e+01 -4.450797e+00 5.667374e+00
      vertex 3.412649e+01 -4.450797e+00 2.842171e-14
      vertex 2.437606e+01 -4.450797e+00 2.842171e-14
    endloop
  endfacet
  facet normal -1.836970e-16 1.000000e+00 -3.061617e-16
    outer loop
      vertex 3.412649e+01 -4.450797e+00 2.842171e-14
      vertex 2.437606e+01 -4.450797e+00 5.667374e+00
      vertex 3.412649e+01 -4.450797e+00 5.667374e+00
    endloop
  endfacet
  facet normal -1.836970e-16 1.000000e+00 -3.061617e-16
    outer loop
      vertex 1.462564e+01 9.951484e+00 5.667374e+00
      vertex 2.437606e+01 9.951484e+00 2.842171e-14
      vertex 1.462564e+01 9.951484e+00 2.842171e-14
    endloop
  endfacet
  facet normal -1.836970e-16 1.000000e+00 -3.061617e-16
    outer loop
      vertex 2.437606e+01 9.951484e+00 2.842171e-14
      vertex 1.462564e+01 9.951484e+00 5.667374e+00
      vertex 2.437606e+01 9.951484e+00 5.667374e+00
    endloop
  endfacet
  facet normal -1.836970e-16 1.000000e+00 -3.061617e-16
    outer loop
      vertex -7.312819e+01 1.382816e+01 5.667374e+00
      vertex -6.337777e+01 1.382816e+01 0.000000e+00
      vertex -7.312819e+01 1.382816e+01 0.000000e+00
    endloop
  endfacet
  facet normal -1.836970e-16 1.000000e+00 -3.061617e-16
    outer loop
      vertex -6.337777e+01 1.382816e+01 0.000000e+00
      vertex -7.312819e+01 1.382816e+01 5.667374e+00
      vertex -6.337777e+01 1.382816e+01 5.667374e+00
    endloop
  endfacet
  facet normal 1.000000e+00 1.836970e-16 3.673940e-16
    outer loop
      vertex 5.362734e+01 1.382816e+01 2.842171e-14
      vertex 5.362734e+01 9.951484e+00 5.667374e+00
      vertex 5.362734e+01 9.951484e+00 2.842171e-14
    endloop
  endfacet
  facet normal 1.000000e+00 1.836970e-16 3.673940e-16
    outer loop
      vertex 5.362734e+01 9.951484e+00 5.667374e+00
      vertex 5.362734e+01 1.382816e+01 2.842171e-14
      vertex 5.362734e+01 1.382816e+01 5.667374e+00
    endloop
  endfacet
  facet normal -1.836970e-16 1.000000e+00 -3.061617e-16
    outer loop
      vertex 4.387692e+01 1.382816e+01 5.667374e+00
      vertex 5.362734e+01 1.382816e+01 2.842171e-14
      vertex 4.387692e+01 1.382816e+01 2.842171e-14
    endloop
  endfacet
  facet normal -1.836970e-16 1.000000e+00 -3.061617e-16
    outer loop
      vertex 5.362734e+01 1.382816e+01 2.842171e-14
      vertex 4.387692e+01 1.382816e+01 5.667374e+00
      vertex 5.362734e+01 1.382816e+01 5.667374e+00
    endloop
  endfacet
  facet normal -1.836970e-16 1.000000e+00 -3.061617e-16
    outer loop
      vertex -3.412648e+01 1.382816e+01 5.667374e+00
      vertex -2.437606e+01 1.382816e+01 0.000000e+00
      vertex -3.412648e+01 1.382816e+01 0.000000e+00
    endloop
  endfacet
  facet normal -1.836970e-16 1.000000e+00 -3.061617e-16
    outer loop
      vertex -2.437606e+01 1.382816e+01 0.000000e+00
      vertex -3.412648e+01 1.382816e+01 5.667374e+00
      vertex -2.437606e+01 1.382816e+01 5.667374e+00
    endloop
  endfacet
  facet normal -1.836970e-16 1.000000e+00 -3.061617e-16
    outer loop
      vertex -1.462563e+01 1.382816e+01 5.667374e+00
      vertex -4.875217e+00 1.382816e+01 2.842171e-14
      vertex -1.462563e+01 1.382816e+01 2.842171e-14
    endloop
  endfacet
  facet normal -1.836970e-16 1.000000e+00 -3.061617e-16
    outer loop
      vertex -4.875217e+00 1.382816e+01 2.842171e-14
      vertex -1.462563e+01 1.382816e+01 5.667374e+00
      vertex -4.875217e+00 1.382816e+01 5.667374e+00
    endloop
  endfacet
  facet normal -1.000000e+00 -1.836970e-16 -3.673940e-16
    outer loop
      vertex 4.387692e+01 1.382816e+01 5.667374e+00
      vertex 4.387692e+01 9.951484e+00 2.842171e-14
      vertex 4.387692e+01 9.951484e+00 5.667374e+00
    endloop
  endfacet
  facet normal -1.000000e+00 -1.836970e-16 -3.673940e-16
    outer loop
      vertex 4.387692e+01 9.951484e+00 2.842171e-14
      vertex 4.387692e+01 1.382816e+01 5.667374e+00
      vertex 4.387692e+01 1.382816e+01 2.842171e-14
    endloop
  endfacet
  facet normal -1.000000e+00 -1.836970e-16 -3.673940e-16
    outer loop
      vertex 6.337777e+01 1.382816e+01 5.667374e+00
      vertex 6.337777e+01 9.951484e+00 5.684342e-14
      vertex 6.337777e+01 9.951484e+00 5.667374e+00
    endloop
  endfacet
  facet normal -1.000000e+00 -1.836970e-16 -3.673940e-16
    outer loop
      vertex 6.337777e+01 9.951484e+00 5.684342e-14
      vertex 6.337777e+01 1.382816e+01 5.667374e+00
      vertex 6.337777e+01 1.382816e+01 5.684342e-14
    endloop
  endfacet
  facet normal -1.000000e+00 -1.836970e-16 -3.673940e-16
    outer loop
      vertex -1.462563e+01 1.382816e+01 5.667374e+00
      vertex -1.462563e+01 9.951484e+00 2.740021e+00
      vertex -1.462563e+01 9.951484e+00 5.667374e+00
    endloop
  endfacet
  facet normal -1.000000e+00 -1.836970e-16 -3.673940e-16
    outer loop
      vertex -1.462563e+01 9.951484e+00 2.740021e+00
      vertex -1.462563e+01 1.382816e+01 5.667374e+00
      vertex -1.462563e+01 9.951484e+00 2.842171e-14
    endloop
  endfacet
  facet normal -1.000000e+00 -1.836970e-16 -3.673940e-16
    outer loop
      vertex -1.462563e+01 9.951484e+00 2.842171e-14
      vertex -1.462563e+01 1.382816e+01 5.667374e+00
      vertex -1.462563e+01 1.382816e+01 2.842171e-14
    endloop
  endfacet
endsolid Default
