solid OpenSCAD_Model
  facet normal -1 0 0
    outer loop
      vertex 5.5 15.5 -0.12599
      vertex 5.5 24 0
      vertex 5.5 24 -0.12599
    endloop
  endfacet
  facet normal -1 -0 0
    outer loop
      vertex 5.5 24 0
      vertex 5.5 15.5 -0.12599
      vertex 5.5 15.5 0
    endloop
  endfacet
  facet normal 0 1 -0
    outer loop
      vertex 13.374 24 -8
      vertex 5.5 24 0
      vertex 22 24 0
    endloop
  endfacet
  facet normal 0 1 0
    outer loop
      vertex 13.374 24 -8
      vertex 22 24 0
      vertex 22 24 -8
    endloop
  endfacet
  facet normal 0 1 0
    outer loop
      vertex 5.5 24 0
      vertex 13.374 24 -8
      vertex 5.5 24 -0.12599
    endloop
  endfacet
  facet normal 0 0 -1
    outer loop
      vertex 22 15.5 -8
      vertex 20.5 17 -8
      vertex 22 24 -8
    endloop
  endfacet
  facet normal 0 0 -1
    outer loop
      vertex 22 15.5 -8
      vertex 15 17 -8
      vertex 20.5 17 -8
    endloop
  endfacet
  facet normal -0 0 -1
    outer loop
      vertex 15 17 -8
      vertex 13.374 15.5 -8
      vertex 15 22.5 -8
    endloop
  endfacet
  facet normal 0 0 -1
    outer loop
      vertex 13.374 15.5 -8
      vertex 15 17 -8
      vertex 22 15.5 -8
    endloop
  endfacet
  facet normal 0 0 -1
    outer loop
      vertex 20.5 22.5 -8
      vertex 22 24 -8
      vertex 20.5 17 -8
    endloop
  endfacet
  facet normal 0 0 -1
    outer loop
      vertex 15 22.5 -8
      vertex 22 24 -8
      vertex 20.5 22.5 -8
    endloop
  endfacet
  facet normal 0 0 -1
    outer loop
      vertex 15 22.5 -8
      vertex 13.374 24 -8
      vertex 22 24 -8
    endloop
  endfacet
  facet normal 0 0 -1
    outer loop
      vertex 13.374 24 -8
      vertex 15 22.5 -8
      vertex 13.374 15.5 -8
    endloop
  endfacet
  facet normal 0 -1 0
    outer loop
      vertex 13.374 15.5 -8
      vertex 5.5 15.5 0
      vertex 5.5 15.5 -0.12599
    endloop
  endfacet
  facet normal 0 -1 0
    outer loop
      vertex 5.5 15.5 0
      vertex 13.374 15.5 -8
      vertex 22 15.5 0
    endloop
  endfacet
  facet normal 0 -1 -0
    outer loop
      vertex 22 15.5 0
      vertex 13.374 15.5 -8
      vertex 22 15.5 -8
    endloop
  endfacet
  facet normal -0.707107 0 -0.707107
    outer loop
      vertex 5.5 15.5 -0.12599
      vertex 13.374 24 -8
      vertex 13.374 15.5 -8
    endloop
  endfacet
  facet normal -0.707107 0 -0.707107
    outer loop
      vertex 13.374 24 -8
      vertex 5.5 15.5 -0.12599
      vertex 5.5 24 -0.12599
    endloop
  endfacet
  facet normal -1 0 0
    outer loop
      vertex 0 39 0
      vertex 0 36.5 2
      vertex 0 39 7
    endloop
  endfacet
  facet normal -1 0 0
    outer loop
      vertex 0 39 0
      vertex 0 2.5 2
      vertex 0 36.5 2
    endloop
  endfacet
  facet normal -1 -0 0
    outer loop
      vertex 0 2.5 2
      vertex 0 0 0
      vertex 0 2.5 5
    endloop
  endfacet
  facet normal -1 0 0
    outer loop
      vertex 0 0 0
      vertex 0 2.5 2
      vertex 0 39 0
    endloop
  endfacet
  facet normal -1 0 0
    outer loop
      vertex 0 36.5 5
      vertex 0 39 7
      vertex 0 36.5 2
    endloop
  endfacet
  facet normal -1 0 0
    outer loop
      vertex 0 2.5 5
      vertex 0 39 7
      vertex 0 36.5 5
    endloop
  endfacet
  facet normal -1 0 0
    outer loop
      vertex 0 2.5 5
      vertex 0 0 7
      vertex 0 39 7
    endloop
  endfacet
  facet normal -1 0 0
    outer loop
      vertex 0 0 7
      vertex 0 2.5 5
      vertex 0 0 0
    endloop
  endfacet
  facet normal -0 0 1
    outer loop
      vertex 0 39 7
      vertex 35 0 7
      vertex 35 39 7
    endloop
  endfacet
  facet normal 0 0 1
    outer loop
      vertex 35 0 7
      vertex 0 39 7
      vertex 0 0 7
    endloop
  endfacet
  facet normal 1 0 0
    outer loop
      vertex 35 39 7
      vertex 35 36.5 5
      vertex 35 39 0
    endloop
  endfacet
  facet normal 1 0 0
    outer loop
      vertex 35 39 7
      vertex 35 2.5 5
      vertex 35 36.5 5
    endloop
  endfacet
  facet normal 1 0 0
    outer loop
      vertex 35 2.5 5
      vertex 35 0 7
      vertex 35 2.5 2
    endloop
  endfacet
  facet normal 1 -0 0
    outer loop
      vertex 35 0 7
      vertex 35 2.5 5
      vertex 35 39 7
    endloop
  endfacet
  facet normal 1 -0 0
    outer loop
      vertex 35 36.5 2
      vertex 35 39 0
      vertex 35 36.5 5
    endloop
  endfacet
  facet normal 1 -0 0
    outer loop
      vertex 35 2.5 2
      vertex 35 39 0
      vertex 35 36.5 2
    endloop
  endfacet
  facet normal 1 0 0
    outer loop
      vertex 35 2.5 2
      vertex 35 0 0
      vertex 35 39 0
    endloop
  endfacet
  facet normal 1 0 0
    outer loop
      vertex 35 0 0
      vertex 35 2.5 2
      vertex 35 0 7
    endloop
  endfacet
  facet normal 0 0 -1
    outer loop
      vertex 35 0 0
      vertex 22 15.5 0
      vertex 35 39 0
    endloop
  endfacet
  facet normal 0 0 -1
    outer loop
      vertex 0 0 0
      vertex 22 15.5 0
      vertex 35 0 0
    endloop
  endfacet
  facet normal 0 0 -1
    outer loop
      vertex 0 39 0
      vertex 5.5 15.5 0
      vertex 0 0 0
    endloop
  endfacet
  facet normal -0 0 -1
    outer loop
      vertex 22 15.5 0
      vertex 0 0 0
      vertex 5.5 15.5 0
    endloop
  endfacet
  facet normal 0 0 -1
    outer loop
      vertex 22 24 0
      vertex 35 39 0
      vertex 22 15.5 0
    endloop
  endfacet
  facet normal 0 0 -1
    outer loop
      vertex 0 39 0
      vertex 22 24 0
      vertex 5.5 24 0
    endloop
  endfacet
  facet normal 0 0 -1
    outer loop
      vertex 22 24 0
      vertex 0 39 0
      vertex 35 39 0
    endloop
  endfacet
  facet normal 0 0 -1
    outer loop
      vertex 5.5 15.5 0
      vertex 0 39 0
      vertex 5.5 24 0
    endloop
  endfacet
  facet normal 0 -1 0
    outer loop
      vertex 0 0 0
      vertex 35 0 7
      vertex 0 0 7
    endloop
  endfacet
  facet normal 0 -1 -0
    outer loop
      vertex 35 0 7
      vertex 0 0 0
      vertex 35 0 0
    endloop
  endfacet
  facet normal 0 1 -0
    outer loop
      vertex 35 39 0
      vertex 0 39 7
      vertex 35 39 7
    endloop
  endfacet
  facet normal 0 1 0
    outer loop
      vertex 0 39 7
      vertex 35 39 0
      vertex 0 39 0
    endloop
  endfacet
  facet normal 1 -0 0
    outer loop
      vertex 22 15.5 0
      vertex 22 24 -8
      vertex 22 24 0
    endloop
  endfacet
  facet normal 1 0 0
    outer loop
      vertex 22 24 -8
      vertex 22 15.5 0
      vertex 22 15.5 -8
    endloop
  endfacet
  facet normal 0 0 -1
    outer loop
      vertex 0 2.5 5
      vertex 35 36.5 5
      vertex 35 2.5 5
    endloop
  endfacet
  facet normal -0 0 -1
    outer loop
      vertex 35 36.5 5
      vertex 0 2.5 5
      vertex 0 36.5 5
    endloop
  endfacet
  facet normal 0 -1 0
    outer loop
      vertex 0 36.5 2
      vertex 35 36.5 5
      vertex 0 36.5 5
    endloop
  endfacet
  facet normal 0 -1 -0
    outer loop
      vertex 35 36.5 5
      vertex 0 36.5 2
      vertex 35 36.5 2
    endloop
  endfacet
  facet normal 0 0 1
    outer loop
      vertex 20.5 17 2
      vertex 35 36.5 2
      vertex 20.5 22.5 2
    endloop
  endfacet
  facet normal 0 0 1
    outer loop
      vertex 35 36.5 2
      vertex 15 22.5 2
      vertex 20.5 22.5 2
    endloop
  endfacet
  facet normal 0 0 1
    outer loop
      vertex 15 22.5 2
      vertex 0 36.5 2
      vertex 15 17 2
    endloop
  endfacet
  facet normal -0 0 1
    outer loop
      vertex 0 36.5 2
      vertex 15 22.5 2
      vertex 35 36.5 2
    endloop
  endfacet
  facet normal 0 0 1
    outer loop
      vertex 35 36.5 2
      vertex 20.5 17 2
      vertex 35 2.5 2
    endloop
  endfacet
  facet normal -0 0 1
    outer loop
      vertex 15 17 2
      vertex 35 2.5 2
      vertex 20.5 17 2
    endloop
  endfacet
  facet normal 0 0 1
    outer loop
      vertex 15 17 2
      vertex 0 2.5 2
      vertex 35 2.5 2
    endloop
  endfacet
  facet normal 0 0 1
    outer loop
      vertex 0 2.5 2
      vertex 15 17 2
      vertex 0 36.5 2
    endloop
  endfacet
  facet normal 0 1 -0
    outer loop
      vertex 35 2.5 2
      vertex 0 2.5 5
      vertex 35 2.5 5
    endloop
  endfacet
  facet normal 0 1 0
    outer loop
      vertex 0 2.5 5
      vertex 35 2.5 2
      vertex 0 2.5 2
    endloop
  endfacet
  facet normal 1 -0 0
    outer loop
      vertex 15 17 2
      vertex 15 22.5 -8
      vertex 15 22.5 2
    endloop
  endfacet
  facet normal 1 0 0
    outer loop
      vertex 15 22.5 -8
      vertex 15 17 2
      vertex 15 17 -8
    endloop
  endfacet
  facet normal -1 0 0
    outer loop
      vertex 20.5 17 -8
      vertex 20.5 22.5 2
      vertex 20.5 22.5 -8
    endloop
  endfacet
  facet normal -1 -0 0
    outer loop
      vertex 20.5 22.5 2
      vertex 20.5 17 -8
      vertex 20.5 17 2
    endloop
  endfacet
  facet normal 0 1 -0
    outer loop
      vertex 20.5 17 -8
      vertex 15 17 2
      vertex 20.5 17 2
    endloop
  endfacet
  facet normal 0 1 0
    outer loop
      vertex 15 17 2
      vertex 20.5 17 -8
      vertex 15 17 -8
    endloop
  endfacet
  facet normal 0 -1 0
    outer loop
      vertex 15 22.5 -8
      vertex 20.5 22.5 2
      vertex 15 22.5 2
    endloop
  endfacet
  facet normal 0 -1 -0
    outer loop
      vertex 20.5 22.5 2
      vertex 15 22.5 -8
      vertex 20.5 22.5 -8
    endloop
  endfacet
endsolid OpenSCAD_Model
