solid OpenSCAD_Model
  facet normal -1 0 0
    outer loop
      vertex 0 0 0
      vertex 0 20 5
      vertex 0 20 0
    endloop
  endfacet
  facet normal -1 -0 0
    outer loop
      vertex 0 20 5
      vertex 0 0 0
      vertex 0 0 5
    endloop
  endfacet
  facet normal -0 0 1
    outer loop
      vertex 5 20 20
      vertex 20 0 20
      vertex 20 20 20
    endloop
  endfacet
  facet normal 0 0 1
    outer loop
      vertex 20 0 20
      vertex 5 20 20
      vertex 5 0 20
    endloop
  endfacet
  facet normal 1 0 0
    outer loop
      vertex 20 20 20
      vertex 20 12.5 5
      vertex 20 20 0
    endloop
  endfacet
  facet normal 1 0 0
    outer loop
      vertex 20 20 20
      vertex 20 7.5 5
      vertex 20 12.5 5
    endloop
  endfacet
  facet normal 1 -0 0
    outer loop
      vertex 20 0 20
      vertex 20 7.5 5
      vertex 20 20 20
    endloop
  endfacet
  facet normal 1 0 0
    outer loop
      vertex 20 0 0
      vertex 20 7.5 5
      vertex 20 0 20
    endloop
  endfacet
  facet normal 1 0 0
    outer loop
      vertex 20 7.5 5
      vertex 20 0 0
      vertex 20 7.5 0
    endloop
  endfacet
  facet normal 1 0 0
    outer loop
      vertex 20 20 0
      vertex 20 12.5 5
      vertex 20 12.5 0
    endloop
  endfacet
  facet normal 0 0 -1
    outer loop
      vertex 0 0 0
      vertex 20 7.5 0
      vertex 20 0 0
    endloop
  endfacet
  facet normal -0 0 -1
    outer loop
      vertex 20 7.5 0
      vertex 0 0 0
      vertex 20 12.5 0
    endloop
  endfacet
  facet normal 0 0 -1
    outer loop
      vertex 0 20 0
      vertex 20 12.5 0
      vertex 0 0 0
    endloop
  endfacet
  facet normal 0 0 -1
    outer loop
      vertex 20 12.5 0
      vertex 0 20 0
      vertex 20 20 0
    endloop
  endfacet
  facet normal 0 0 -1
    outer loop
      vertex 20 7.5 0
      vertex 170 12.5 0
      vertex 170 7.5 0
    endloop
  endfacet
  facet normal -0 0 -1
    outer loop
      vertex 170 12.5 0
      vertex 20 7.5 0
      vertex 20 12.5 0
    endloop
  endfacet
  facet normal 0 -1 0
    outer loop
      vertex 0 0 5
      vertex 0 0 0
      vertex 15 0 5
    endloop
  endfacet
  facet normal 0 -1 0
    outer loop
      vertex 15 0 15
      vertex 5 0 20
      vertex 5 0 15
    endloop
  endfacet
  facet normal 0 -1 0
    outer loop
      vertex 5 0 20
      vertex 15 0 15
      vertex 20 0 20
    endloop
  endfacet
  facet normal 0 -1 0
    outer loop
      vertex 15 0 5
      vertex 20 0 20
      vertex 15 0 15
    endloop
  endfacet
  facet normal 0 -1 0
    outer loop
      vertex 15 0 5
      vertex 20 0 0
      vertex 20 0 20
    endloop
  endfacet
  facet normal 0 -1 0
    outer loop
      vertex 20 0 0
      vertex 15 0 5
      vertex 0 0 0
    endloop
  endfacet
  facet normal 0 1 0
    outer loop
      vertex 20 20 20
      vertex 15 20 15
      vertex 5 20 20
    endloop
  endfacet
  facet normal 0 1 0
    outer loop
      vertex 20 20 20
      vertex 15 20 5
      vertex 15 20 15
    endloop
  endfacet
  facet normal 0 1 -0
    outer loop
      vertex 20 20 0
      vertex 15 20 5
      vertex 20 20 20
    endloop
  endfacet
  facet normal 0 1 0
    outer loop
      vertex 0 20 0
      vertex 15 20 5
      vertex 20 20 0
    endloop
  endfacet
  facet normal 0 1 0
    outer loop
      vertex 15 20 5
      vertex 0 20 0
      vertex 0 20 5
    endloop
  endfacet
  facet normal 0 1 0
    outer loop
      vertex 5 20 20
      vertex 15 20 15
      vertex 5 20 15
    endloop
  endfacet
  facet normal 0 0 -1
    outer loop
      vertex 5 0 15
      vertex 15 20 15
      vertex 15 0 15
    endloop
  endfacet
  facet normal -0 0 -1
    outer loop
      vertex 15 20 15
      vertex 5 0 15
      vertex 5 20 15
    endloop
  endfacet
  facet normal -1 0 0
    outer loop
      vertex 15 0 5
      vertex 15 20 15
      vertex 15 20 5
    endloop
  endfacet
  facet normal -1 -0 0
    outer loop
      vertex 15 20 15
      vertex 15 0 5
      vertex 15 0 15
    endloop
  endfacet
  facet normal -0 0 1
    outer loop
      vertex 0 20 5
      vertex 15 0 5
      vertex 15 20 5
    endloop
  endfacet
  facet normal 0 0 1
    outer loop
      vertex 15 0 5
      vertex 0 20 5
      vertex 0 0 5
    endloop
  endfacet
  facet normal -1 0 0
    outer loop
      vertex 5 0 15
      vertex 5 20 20
      vertex 5 20 15
    endloop
  endfacet
  facet normal -1 -0 0
    outer loop
      vertex 5 20 20
      vertex 5 0 15
      vertex 5 0 20
    endloop
  endfacet
  facet normal -0 0 1
    outer loop
      vertex 20 12.5 5
      vertex 165 7.5 5
      vertex 165 12.5 5
    endloop
  endfacet
  facet normal 0 0 1
    outer loop
      vertex 165 7.5 5
      vertex 20 12.5 5
      vertex 20 7.5 5
    endloop
  endfacet
  facet normal 1 -0 0
    outer loop
      vertex 170 7.5 20
      vertex 170 12.5 0
      vertex 170 12.5 20
    endloop
  endfacet
  facet normal 1 0 0
    outer loop
      vertex 170 12.5 0
      vertex 170 7.5 20
      vertex 170 7.5 0
    endloop
  endfacet
  facet normal 0 1 0
    outer loop
      vertex 170 12.5 20
      vertex 165 12.5 5
      vertex 165 12.5 20
    endloop
  endfacet
  facet normal 0 1 -0
    outer loop
      vertex 170 12.5 0
      vertex 165 12.5 5
      vertex 170 12.5 20
    endloop
  endfacet
  facet normal 0 1 0
    outer loop
      vertex 20 12.5 0
      vertex 165 12.5 5
      vertex 170 12.5 0
    endloop
  endfacet
  facet normal 0 1 0
    outer loop
      vertex 165 12.5 5
      vertex 20 12.5 0
      vertex 20 12.5 5
    endloop
  endfacet
  facet normal 0 -1 0
    outer loop
      vertex 20 7.5 5
      vertex 20 7.5 0
      vertex 165 7.5 5
    endloop
  endfacet
  facet normal 0 -1 0
    outer loop
      vertex 165 7.5 5
      vertex 170 7.5 20
      vertex 165 7.5 20
    endloop
  endfacet
  facet normal 0 -1 0
    outer loop
      vertex 165 7.5 5
      vertex 170 7.5 0
      vertex 170 7.5 20
    endloop
  endfacet
  facet normal 0 -1 0
    outer loop
      vertex 170 7.5 0
      vertex 165 7.5 5
      vertex 20 7.5 0
    endloop
  endfacet
  facet normal -1 0 0
    outer loop
      vertex 165 7.5 5
      vertex 165 12.5 20
      vertex 165 12.5 5
    endloop
  endfacet
  facet normal -1 -0 0
    outer loop
      vertex 165 12.5 20
      vertex 165 7.5 5
      vertex 165 7.5 20
    endloop
  endfacet
  facet normal -0 0 1
    outer loop
      vertex 165 12.5 20
      vertex 170 7.5 20
      vertex 170 12.5 20
    endloop
  endfacet
  facet normal 0 0 1
    outer loop
      vertex 170 7.5 20
      vertex 165 12.5 20
      vertex 165 7.5 20
    endloop
  endfacet
endsolid OpenSCAD_Model
